<svg width="547" height="310" viewBox="0 0 547 310" fill="none" xmlns="http://www.w3.org/2000/svg">
<g clip-path="url(#clip0_119_2872)">
<path d="M505.161 309.996H265.596C254.998 309.996 246.406 301.416 246.406 290.833V167.237C246.406 156.652 254.998 148.072 265.596 148.072H505.161C515.759 148.072 524.35 156.652 524.35 167.237V290.833C524.35 301.416 515.759 309.996 505.161 309.996Z" fill="#25254F"/>
<path d="M258.345 63.1219V131.404C258.345 136.614 254.12 140.833 248.904 140.833H242.38C229.653 140.833 219.242 151.231 219.242 163.942V179.27C219.242 185.439 214.236 190.438 208.06 190.438H15.9284C7.13083 190.438 0 183.316 0 174.529V66.3719C0 55.7841 8.59192 47.2088 19.1878 47.2088H242.412C251.214 47.2088 258.345 54.3304 258.345 63.1219Z" fill="#25254F"/>
<path d="M269.251 63.1219V131.404C269.251 136.614 265.027 140.833 259.81 140.833H253.286C240.559 140.833 230.148 151.231 230.148 163.942V179.27C230.148 185.439 225.143 190.438 218.966 190.438H26.8346C18.0371 190.438 10.9062 183.316 10.9062 174.529V66.3719C10.9062 55.7841 19.4982 47.2088 30.094 47.2088H253.318C262.121 47.2088 269.251 54.3304 269.251 63.1219Z" fill="#4061E3"/>
<path d="M495.894 309.996H256.33C245.732 309.996 237.141 301.416 237.141 290.833V167.237C237.141 156.652 245.732 148.072 256.33 148.072H495.894C506.492 148.072 515.086 156.652 515.086 167.237V290.833C515.086 301.416 506.492 309.996 495.894 309.996Z" fill="#4061E3"/>
<path d="M428.184 216.453C422.668 219.413 415.13 218.913 414.077 218.824C413.992 218.818 413.951 218.813 413.951 218.813C413.951 218.813 400.695 239.193 377.278 235.606C374.367 235.163 371.292 234.347 368.068 233.072C361.27 230.386 357.036 226.34 354.565 221.631C348.935 210.875 352.555 196.695 356.076 187.561C358.189 182.067 360.269 178.395 360.269 178.395C360.269 178.395 367.716 167.797 372.384 167.439C377.052 167.081 382.856 160.625 388.633 164.389C388.633 164.389 393.078 170.353 394.466 176.673C396.338 185.181 405.689 182.808 409.462 191.828C412.199 198.372 418.349 200.435 418.349 200.435C418.349 200.435 430.537 193.94 433.465 202.294C433.776 203.174 433.982 204.217 434.061 205.455C434.425 211.228 431.72 214.552 428.184 216.453Z" fill="#F6B399"/>
<path d="M418.497 211.949C418.219 211.949 417.937 211.861 417.696 211.678C417.118 211.236 417.01 210.41 417.45 209.832C422.631 203.071 426.454 205.077 426.874 205.328L425.516 207.587L425.563 207.612C425.539 207.603 423.265 206.576 419.545 211.433C419.287 211.771 418.893 211.949 418.497 211.949Z" fill="#EE6A5F"/>
<path d="M364.889 206.197C364.812 206.197 364.736 206.191 364.66 206.177C361.421 205.614 360.323 204.002 359.971 202.749C358.451 197.327 368.304 188.38 370.296 186.641C370.845 186.162 371.675 186.218 372.156 186.766C372.635 187.313 372.579 188.145 372.03 188.624C367.603 192.495 361.72 199.217 362.512 202.039C362.723 202.8 363.601 203.319 365.115 203.583C365.83 203.708 366.312 204.39 366.185 205.106C366.074 205.747 365.517 206.197 364.889 206.197Z" fill="#EE6A5F"/>
<path d="M379.636 249.866C372.764 250.719 334.237 257.082 321.159 293.354C319.414 290.241 317.058 284.884 317.401 279.2C317.938 270.325 325.613 267.77 329.654 262.792C333.694 257.82 331.81 251.499 333.556 246.521C335.308 241.543 344.33 237.108 349.975 233.879C353.519 231.846 354.42 225.883 354.567 221.632C357.037 226.341 361.271 230.387 368.069 233.073C371.294 234.348 374.369 235.164 377.279 235.607L379.636 249.866Z" fill="#18181B"/>
<path d="M414.082 218.823L411.861 245.914L411.803 246.609C411.803 246.609 395.463 269.291 381.186 269.291C366.914 269.291 379.93 251.629 379.93 251.629L379.639 249.865L377.283 235.605C400.7 239.192 413.956 218.812 413.956 218.812C413.956 218.812 413.997 218.818 414.082 218.823Z" fill="#F6B399"/>
<path d="M295 258.625L301.162 279.369C291.314 290.472 274.563 290.151 267.564 289.451C262.749 275.013 256.841 256.565 254.647 246.652C250.697 228.811 256.578 225.361 264.336 221.236C268.962 218.776 272.269 218.581 274.184 218.824C275.486 218.987 276.145 219.351 276.145 219.351C278.724 220.373 280.861 225.603 282.142 230.992C283.798 229.865 286.066 228.948 289.036 228.442C289.284 228.4 289.537 228.358 289.795 228.321C302.364 226.525 303.35 236.475 303.799 240.868C304.248 245.267 295 258.625 295 258.625Z" fill="#F6B399"/>
<path d="M289.035 228.443C286.066 228.948 283.798 229.865 282.142 230.992C280.86 225.603 278.724 220.373 276.145 219.351C276.145 219.351 275.485 218.988 274.183 218.824C273.223 214.926 271.783 209.216 270.581 205.008C269.04 199.629 267.869 194.346 272.827 193.172C278.513 191.828 280.275 196.49 281.894 201.599C283.524 206.751 287.622 222.854 289.035 228.443Z" fill="#F6B399"/>
<path d="M310.258 310H274.572C274.572 310 271.418 301.013 267.562 289.45C274.561 290.151 291.313 290.472 301.16 279.368L310.258 310Z" fill="#D8476A"/>
<path d="M470.958 310H317.359C318.052 303.846 319.363 298.32 321.156 293.353C334.233 257.082 372.761 250.718 379.632 249.865L379.923 251.63C379.923 251.63 366.907 269.292 381.178 269.292C395.456 269.292 411.796 246.61 411.796 246.61L411.854 245.915C421.296 247.31 470.958 257.176 470.958 310Z" fill="#D8476A"/>
<path d="M503.367 289.15C503.367 299.296 499.087 305.859 494.413 310H470.963C470.963 257.176 421.301 247.31 411.859 245.915L414.08 218.824C415.134 218.913 422.671 219.413 428.188 216.454C427.897 219.44 428.193 222.411 429.666 224.734C434.334 232.082 453.541 231.634 462.07 242.933C470.6 254.232 463.511 257.909 475.271 264.809C487.027 271.715 503.367 266.826 503.367 289.15Z" fill="#18181B"/>
<path d="M398.3 197.309C397.781 197.309 397.326 196.925 397.256 196.395C395.718 184.999 392.667 181.419 390.378 180.424C388.089 179.427 386.071 180.823 385.989 180.883C385.513 181.217 384.856 181.109 384.519 180.638C384.181 180.167 384.284 179.514 384.753 179.174C384.877 179.084 387.787 177.021 391.185 178.477C395.257 180.22 398.004 186.154 399.348 196.114C399.424 196.691 399.019 197.222 398.441 197.299C398.394 197.305 398.347 197.309 398.3 197.309Z" fill="#18181B"/>
<path d="M360.194 180.154C359.986 180.154 359.772 180.092 359.587 179.961C359.112 179.626 358.997 178.968 359.335 178.493C362.589 173.896 365.713 171.666 368.63 171.836C371.69 172.024 373.207 174.794 373.271 174.912C373.547 175.425 373.354 176.064 372.84 176.338C372.327 176.613 371.69 176.421 371.414 175.912C371.397 175.88 370.358 174.043 368.483 173.938C367.019 173.856 364.537 174.789 361.057 179.709C360.852 180 360.526 180.154 360.194 180.154Z" fill="#18181B"/>
<path d="M285.304 243.295C284.605 243.295 283.887 243.239 283.162 243.106C282.278 242.944 281.477 242.692 280.712 242.336C278.7 241.404 277.393 239.533 277.217 237.332C276.994 234.553 278.522 231.844 281.407 229.9L281.513 229.835C281.677 229.746 285.558 227.642 288.585 226.793C289.287 226.596 290.014 227.005 290.211 227.705C290.408 228.405 289.999 229.132 289.298 229.329C286.735 230.047 283.301 231.866 282.83 232.118C280.789 233.512 279.702 235.333 279.846 237.122C279.946 238.383 280.667 239.412 281.824 239.948C282.385 240.209 282.978 240.395 283.638 240.516C287.377 241.204 291.121 239.273 291.158 239.254C291.803 238.917 292.601 239.165 292.938 239.81C293.276 240.454 293.027 241.25 292.382 241.587C292.225 241.669 289.064 243.295 285.304 243.295Z" fill="#EE6A5F"/>
<path d="M267.68 250.9C264.304 250.9 260.241 248.721 258.98 243.797C257.171 236.734 254.917 234.615 254.895 234.594C254.363 234.109 254.311 233.281 254.789 232.743C255.266 232.204 256.079 232.141 256.626 232.609C256.916 232.856 259.515 235.258 261.534 243.145C262.478 246.827 265.408 248.379 267.896 248.262C269.42 248.197 271.16 247.46 271.472 245.585C272.261 240.857 269.106 229.781 265.105 228.198C264.428 227.93 264.097 227.165 264.365 226.489C264.633 225.813 265.4 225.481 266.077 225.749C271.81 228.018 274.955 240.735 274.073 246.018C273.602 248.843 271.222 250.757 268.009 250.894C267.9 250.899 267.79 250.9 267.68 250.9Z" fill="#EE6A5F"/>
<path d="M278.172 247.693C275.92 247.693 273.648 246.755 271.97 245.044C271.461 244.525 271.469 243.691 271.99 243.182C272.51 242.673 273.345 242.682 273.854 243.201C275.649 245.032 278.092 245.338 279.716 244.827C280.459 244.594 281.745 243.964 282.013 242.367C282.042 242.177 282.07 241.953 282.088 241.711C282.143 240.986 282.775 240.444 283.502 240.497C284.229 240.552 284.772 241.185 284.718 241.91C284.694 242.226 284.658 242.519 284.616 242.787C284.248 244.981 282.751 246.635 280.507 247.34C279.749 247.578 278.961 247.693 278.172 247.693Z" fill="#EE6A5F"/>
<path d="M433.722 203.168C433.649 202.857 433.558 202.568 433.464 202.293C430.536 193.94 418.347 200.434 418.347 200.434C416.285 200.097 414.369 199.67 412.582 199.154C385.389 191.342 388.631 164.389 388.631 164.389C369.507 162.413 357.096 185.027 357.096 185.027C349.174 133.01 395.685 146.079 395.685 146.079C395.761 146.042 395.846 146.005 395.925 145.973C402.313 143.229 409.592 143.429 415.83 146.479C466.813 171.384 433.722 203.168 433.722 203.168Z" fill="#18181B"/>
<path d="M414.08 218.825L411.859 245.915C384.179 249.344 377.281 235.607 377.281 235.607C400.698 239.194 413.954 218.814 413.954 218.814C413.954 218.814 413.995 218.819 414.08 218.825Z" fill="#EE6A5F"/>
<path d="M366.744 182.593C365.641 184.485 363.942 185.553 362.954 184.977C361.962 184.401 362.053 182.399 363.159 180.506C364.262 178.614 365.958 177.546 366.95 178.122C367.941 178.699 367.848 180.7 366.744 182.593Z" fill="#18181B"/>
<path d="M384.729 191.304C383.626 193.196 381.927 194.264 380.938 193.688C379.946 193.111 380.037 191.11 381.143 189.217C382.247 187.324 383.942 186.257 384.934 186.834C385.926 187.409 385.832 189.411 384.729 191.304Z" fill="#18181B"/>
<path d="M361.055 58.0996H215.844C210.873 58.0996 206.844 54.0754 206.844 49.1112V8.98737C206.844 4.02343 210.873 0.000144958 215.844 0.000144958H361.055C366.025 0.000144958 370.054 4.02343 370.054 8.98737V49.1112C370.054 54.0754 366.025 58.0996 361.055 58.0996Z" fill="#40C899"/>
<path d="M408.07 31.6826H394.356C392.901 31.6826 391.719 30.5034 391.719 29.0488C391.719 27.5939 392.901 26.4151 394.356 26.4151H408.07C409.526 26.4151 410.705 27.5939 410.705 29.0488C410.705 30.5034 409.526 31.6826 408.07 31.6826ZM435.495 31.6826H421.781C420.326 31.6826 419.146 30.5034 419.146 29.0488C419.146 27.5939 420.326 26.4151 421.781 26.4151H435.495C436.953 26.4151 438.133 27.5939 438.133 29.0488C438.133 30.5034 436.953 31.6826 435.495 31.6826ZM452.231 51.7347C451.383 51.7347 450.55 51.3259 450.039 50.5699L442.387 39.2053C441.575 37.9986 441.897 36.3614 443.103 35.5497C444.315 34.7386 445.952 35.0586 446.765 36.2659L454.417 47.6308C455.23 48.8375 454.91 50.4744 453.701 51.2861C453.249 51.5891 452.739 51.7347 452.231 51.7347ZM467.538 74.4633C466.687 74.4633 465.857 74.0551 465.346 73.2988L457.694 61.9342C456.882 60.7275 457.201 59.0906 458.41 58.2789C459.619 57.4681 461.256 57.7875 462.069 58.9948L469.724 70.3597C470.537 71.5664 470.214 73.2033 469.005 74.015C468.553 74.318 468.043 74.4633 467.538 74.4633ZM478.685 91.0195C477.837 91.0195 477.004 90.6113 476.496 89.855L472.999 84.6637C472.186 83.4567 472.506 81.8204 473.714 81.0081C474.923 80.197 476.563 80.517 477.376 81.7243L480.871 86.9156C481.683 88.1226 481.364 89.7589 480.155 90.5706C479.703 90.8742 479.192 91.0195 478.685 91.0195Z" fill="#25254F"/>
<path d="M401.394 29.3862C401.394 33.2654 398.246 36.4102 394.361 36.4102C390.476 36.4102 387.328 33.2654 387.328 29.3862C387.328 25.5068 390.476 22.3623 394.361 22.3623C398.246 22.3623 401.394 25.5068 401.394 29.3862Z" fill="#FFB703"/>
<path d="M485.722 88.3862C485.722 92.2653 482.574 95.4102 478.689 95.4102C474.807 95.4102 471.656 92.2653 471.656 88.3862C471.656 84.5068 474.807 81.362 478.689 81.362C482.574 81.362 485.722 84.5068 485.722 88.3862Z" fill="#FFB703"/>
<path d="M183.921 158.005L182.175 190.438H97.2642L96.8845 184.19L96.7792 182.5L96.4784 177.611L96.3203 175.014L96.2622 174.093L95.2969 158.337C95.2969 157.921 95.3127 157.51 95.355 157.11C95.3655 156.983 95.3814 156.862 95.3972 156.741C95.492 155.967 95.661 155.224 95.8984 154.518C97.143 150.731 100.218 148.034 103.799 148.024L112.47 147.992L114.1 147.987L124.559 147.945L126.368 147.939L170.023 147.776L171.827 147.771L175.345 147.755C180.044 147.739 183.9 152.348 183.921 158.005Z" fill="#F9E2E3"/>
<path d="M117.33 179.676L114.334 149.02C114.297 148.661 114.218 148.319 114.102 147.987L112.472 147.992C112.683 148.356 112.815 148.751 112.857 149.162L115.853 179.824C115.922 180.572 115.679 181.273 115.146 181.868C114.418 182.674 113.258 183.137 111.966 183.137L99.4392 183.185C98.4795 183.19 97.5512 182.932 96.7812 182.5L96.8866 184.191C97.6723 184.496 98.5429 184.67 99.4448 184.67L111.971 184.623C113.68 184.617 115.241 183.969 116.243 182.858C117.055 181.963 117.44 180.835 117.33 179.676Z" fill="#25254F"/>
<path d="M149.934 167.34L149.941 168.979L138.053 169.023C134.304 169.037 130.863 165.378 129.071 159.467C127.503 154.306 125.252 149.401 124.562 147.945L126.368 147.938C127.301 149.96 129.241 154.372 130.642 158.995C132.214 164.18 135.054 167.396 138.047 167.384L149.934 167.34Z" fill="#25254F"/>
<path d="M171.833 147.77C171.155 149.231 168.94 154.153 167.411 159.325C165.663 165.25 162.249 168.935 158.5 168.949L149.944 168.98L149.938 167.341L158.494 167.309C161.491 167.298 164.303 164.062 165.84 158.865C167.207 154.232 169.109 149.805 170.027 147.777L171.833 147.77Z" fill="#25254F"/>
<path d="M150.826 190.438H149.217L149.138 168.988L149.133 168.167L149.94 168.161H150.742L150.747 168.978L150.826 190.438Z" fill="#25254F"/>
<path d="M109.738 165.823C109.713 159.175 106.677 153.737 102.836 153.208L102.836 153.164L102.306 153.167C102.272 153.166 102.239 153.162 102.205 153.162C102.17 153.163 102.136 153.167 102.102 153.167L99.078 153.179L99.0824 154.332C98.316 154.935 97.6203 155.749 97.0221 156.734C97.0189 156.738 97.0156 156.741 97.0156 156.744L97.0837 175C97.0837 175.003 97.0869 175.006 97.0902 175.01C97.6955 175.989 98.3976 176.799 99.1684 177.395L99.1728 178.555L102.93 178.541L102.93 178.493C106.767 177.935 109.763 172.475 109.738 165.823Z" fill="#25254F"/>
<path d="M94.0469 156.756C94.0469 156.752 94.0501 156.749 94.0536 156.746C95.3924 154.541 97.2189 153.182 99.2364 153.174C103.37 153.159 106.743 158.826 106.769 165.835C106.795 172.847 103.465 178.539 99.3308 178.555C97.3137 178.562 95.4769 177.214 94.1217 175.021C94.1185 175.018 94.1149 175.015 94.1149 175.012L94.0469 156.756Z" fill="#303063"/>
<path d="M102.66 165.849C102.679 170.896 100.278 174.998 97.302 175.009L93.904 175.021C96.8803 175.01 99.2775 170.909 99.2587 165.862C99.2399 160.815 96.8123 156.735 93.8359 156.746L97.2339 156.733C100.21 156.722 102.641 160.802 102.66 165.849Z" fill="#D3B9B2"/>
<path d="M99.2616 165.862C99.2804 170.909 96.8833 175.01 93.9069 175.021C90.9309 175.033 88.5033 170.949 88.4845 165.902C88.4654 160.855 90.8629 156.757 93.8389 156.746C96.8152 156.735 99.2429 160.815 99.2616 165.862Z" fill="#F9E2E3"/>
<path d="M203.811 97.9694L203.84 105.719C203.91 124.494 188.592 139.906 169.794 139.976L110.885 140.195C92.09 140.265 76.6538 124.967 76.5837 106.193L76.5549 98.4429C76.4904 81.1553 89.4825 66.7115 106.221 64.4836C107.058 64.3722 107.906 64.2925 108.763 64.2412C109.37 64.2067 109.986 64.1885 110.601 64.1862L169.51 63.967C171.003 63.9614 172.475 64.0525 173.921 64.236C174.802 64.345 175.671 64.4906 176.533 64.6723C192.004 67.869 203.75 81.6016 203.811 97.9694Z" fill="#F9E2E3"/>
<path d="M88.1 82.3828C88.5739 80.609 89.4156 78.9722 90.4423 77.461C91.4795 75.9566 92.7244 74.5876 94.1231 73.3943C95.5194 72.1991 97.0753 71.182 98.7448 70.4095C100.413 69.6394 102.189 69.0847 104.036 68.9414C105.008 68.8658 105.858 69.5923 105.933 70.5634C105.983 71.1978 105.689 71.7797 105.209 72.1282L105.162 72.1621C103.814 73.1332 102.492 73.9666 101.201 74.8349C99.9111 75.7008 98.6468 76.5725 97.4007 77.4877C96.1564 78.4049 94.9364 79.3675 93.7205 80.384C92.4932 81.3932 91.2931 82.466 89.9672 83.554L89.9473 83.5701C89.4547 83.9742 88.7276 83.9027 88.3233 83.411C88.0798 83.1148 88.0105 82.7274 88.1 82.3828Z" fill="#F0F0F0"/>
<path d="M197.722 105.424L197.728 106.786C197.777 119.939 187.04 130.743 173.869 130.792L125.214 130.972C112.043 131.022 101.226 120.299 101.177 107.145L101.172 105.783C101.157 101.781 102.141 98.0013 103.886 94.6722C104.362 93.7623 104.897 92.8844 105.486 92.0466C109.459 86.3671 115.837 82.4701 123.12 81.8606C123.651 81.8143 124.185 81.7885 124.729 81.7823C124.829 81.7779 124.93 81.7776 125.03 81.7773L173.686 81.5962C186.856 81.547 197.673 92.2702 197.722 105.424Z" fill="#25254F"/>
<path d="M152.012 72.0068L152.018 73.7023L142.898 73.7363C139.306 73.7495 135.971 71.6525 134.201 68.2683C133.374 66.6965 132.371 65.1976 131.578 64.1079L133.646 64.1C134.318 65.086 135.058 66.2602 135.698 67.4833C137.177 70.3063 139.931 72.0516 142.892 72.0408L152.012 72.0068Z" fill="#25254F"/>
<path d="M168.757 63.9685C167.996 65.0439 166.988 66.5662 166.174 68.1482C164.776 70.8734 162.795 73.661 158.728 73.6763L152.022 73.7012L152.016 72.0057L158.721 71.9808C161.3 71.9711 162.969 70.6792 164.67 67.3746C165.301 66.1468 166.037 64.9627 166.697 63.9761L168.757 63.9685Z" fill="#25254F"/>
<path d="M132.048 93.3067C126.761 93.3264 122.476 97.6377 122.496 102.918C122.516 108.198 126.833 112.477 132.119 112.457C137.406 112.438 141.691 108.126 141.671 102.846C141.651 97.5665 137.335 93.2868 132.048 93.3067ZM132.126 114.232C125.86 114.256 120.742 109.183 120.719 102.924C120.695 96.6657 125.775 91.555 132.041 91.5318C138.308 91.5084 143.425 96.5814 143.449 102.84C143.472 109.098 138.393 114.209 132.126 114.232Z" fill="#839CDB"/>
<path d="M175.314 93.1443C170.027 93.1643 165.742 97.4756 165.762 102.755C165.781 108.036 170.098 112.315 175.385 112.295C180.672 112.276 184.957 107.964 184.937 102.684C184.917 97.4044 180.6 93.125 175.314 93.1443ZM175.392 114.07C169.125 114.093 164.008 109.021 163.984 102.762C163.961 96.5036 169.04 91.3929 175.307 91.3694C181.573 91.3463 186.691 96.4192 186.714 102.677C186.737 108.936 181.658 114.047 175.392 114.07Z" fill="#839CDB"/>
<path d="M154.434 124.559C149.611 124.577 145.677 121.731 145.664 118.216L147.441 118.209C147.451 120.746 150.585 122.798 154.427 122.784C158.269 122.769 161.388 120.694 161.378 118.157L163.156 118.151C163.169 121.666 159.256 124.541 154.434 124.559Z" fill="#839CDB"/>
<path d="M96.7994 103.01C96.7692 94.9498 93.0881 88.3572 88.4315 87.7158L88.4312 87.6627L87.7892 87.6651C87.7481 87.6645 87.7076 87.6604 87.6665 87.6604C87.6246 87.6607 87.5829 87.6651 87.541 87.6663L83.8754 87.6797L83.8804 89.0784C82.9515 89.8089 82.1079 90.7964 81.3829 91.9905C81.3788 91.9949 81.375 91.9987 81.375 92.0028L81.4574 114.136C81.4574 114.14 81.4616 114.144 81.4654 114.148C82.1995 115.335 83.0507 116.316 83.9849 117.04L83.9901 118.445L88.5459 118.428V118.37C93.1976 117.694 96.8294 111.074 96.7994 103.01Z" fill="#25254F"/>
<path d="M77.7812 92.0168C77.7812 92.013 77.7851 92.0089 77.7892 92.0048C79.4126 89.3312 81.6269 87.6835 84.0728 87.6747C89.0854 87.656 93.174 94.5269 93.2057 103.024C93.2374 111.526 89.1998 118.427 84.1875 118.445C81.7417 118.455 79.515 116.82 77.8719 114.162C77.8678 114.158 77.8637 114.154 77.8637 114.15L77.7812 92.0168Z" fill="#303063"/>
<path d="M88.2292 103.044C88.2518 109.163 85.3418 114.135 81.7334 114.149L77.614 114.164C81.2223 114.151 84.1285 109.178 84.1056 103.059C84.0827 96.9403 81.1399 91.9937 77.5312 92.0068L81.6507 91.9919C85.259 91.9784 88.2063 96.9251 88.2292 103.044Z" fill="#D3B9B2"/>
<path d="M84.0974 103.059C84.1203 109.178 81.2141 114.151 77.6058 114.164C73.9974 114.178 71.054 109.226 71.0314 103.108C71.0085 96.9889 73.9147 92.0203 77.523 92.0068C81.1317 91.9936 84.0745 96.9403 84.0974 103.059Z" fill="#F9E2E3"/>
<path d="M121.967 64.1438L119.609 64.1526C121.707 65.7596 123.068 68.2858 123.079 71.1262L123.119 81.8613C123.65 81.815 124.185 81.7892 124.728 81.7831L124.688 71.1203C124.678 68.4364 123.651 65.9896 121.967 64.1438Z" fill="#25254F"/>
<path d="M176.534 64.6717C175.673 64.49 174.803 64.3444 173.922 64.2354C175.818 65.8473 177.03 68.2452 177.04 70.925L177.085 82.7168C177.615 82.6705 178.15 82.6444 178.693 82.6385L178.65 70.9191C178.641 68.5728 177.856 66.4102 176.534 64.6717Z" fill="#25254F"/>
<path d="M204.715 291.77H138.946C130.51 291.77 123.672 284.94 123.672 276.515V228.975C123.672 220.55 130.51 213.721 138.946 213.721H204.715C213.15 213.721 219.989 220.55 219.989 228.975V276.515C219.989 284.94 213.15 291.77 204.715 291.77Z" fill="#FFB703"/>
<path d="M156.459 273.375C155.82 273.375 155.179 273.144 154.672 272.677L132.844 252.568L154.672 232.46C155.742 231.473 157.41 231.539 158.398 232.61C159.386 233.679 159.318 235.345 158.248 236.331L140.623 252.568L158.248 268.805C159.318 269.792 159.386 271.458 158.398 272.527C157.878 273.09 157.17 273.375 156.459 273.375Z" fill="white"/>
<path d="M187.185 273.375C186.474 273.375 185.765 273.09 185.246 272.527C184.258 271.458 184.325 269.792 185.396 268.805L203.021 252.568L185.396 236.331C184.325 235.345 184.258 233.679 185.246 232.61C186.233 231.54 187.901 231.474 188.972 232.46L210.8 252.568L188.972 272.677C188.465 273.144 187.824 273.375 187.185 273.375Z" fill="white"/>
<path d="M163.825 278.27C163.532 278.27 163.234 278.221 162.941 278.117C161.569 277.629 160.853 276.123 161.341 274.753L177.65 228.972C178.138 227.601 179.647 226.886 181.019 227.373C182.391 227.861 183.108 229.367 182.62 230.738L166.31 276.518C165.926 277.597 164.909 278.27 163.825 278.27Z" fill="white"/>
<path d="M385.009 191.307C384.094 193.475 382.389 194.826 381.201 194.326C380.013 193.825 379.79 191.662 380.702 189.495C381.618 187.327 383.322 185.976 384.514 186.476C385.702 186.977 385.925 189.14 385.009 191.307Z" fill="#18181B"/>
<path d="M282.023 231.822C281.413 231.822 280.864 231.396 280.734 230.776C278.436 219.857 274.409 220.123 274.37 220.127L274.185 218.824L273.953 217.528C274.612 217.413 280.48 216.764 283.315 230.234C283.465 230.946 283.008 231.644 282.296 231.793C282.204 231.813 282.113 231.822 282.023 231.822Z" fill="#EE6A5F"/>
<path d="M374.634 214.17C371.85 216.133 368.191 219.244 366.46 222.938C361.944 220.643 360.6 216.699 361.921 213.969C364.274 214.357 369.139 214.919 374.634 214.17Z" fill="#18181B"/>
<path d="M374.842 224.76C371.327 224.704 368.545 223.996 366.453 222.937C368.184 219.243 371.843 216.133 374.627 214.17C379.389 213.523 384.636 211.888 389.122 208.288C389.905 208.678 390.639 209.242 391.328 210.018C395.624 214.892 388.268 224.985 374.842 224.76Z" fill="#C44547"/>
<path d="M389.13 208.29C384.643 211.889 379.397 213.524 374.635 214.171C369.14 214.919 364.275 214.357 361.922 213.969C362.321 213.118 362.981 212.388 363.888 211.859C365.757 210.774 368.876 211.868 374.295 210.403C379.676 208.948 385.01 206.228 389.13 208.29Z" fill="white"/>
<path d="M385.674 198.585C384.251 198.916 382.963 198.612 382.799 197.907C382.634 197.202 383.658 196.363 385.081 196.032C386.507 195.702 387.795 196.006 387.957 196.711C388.121 197.416 387.1 198.255 385.674 198.585Z" fill="#EE6A5F"/>
<path d="M359.229 184.98C358.962 183.544 359.323 182.272 360.033 182.14C360.746 182.008 361.541 183.064 361.808 184.501C362.075 185.936 361.714 187.208 361.001 187.34C360.291 187.473 359.496 186.416 359.229 184.98Z" fill="#EE6A5F"/>
<path d="M100.271 256.898C98.5398 256.898 89.0642 256.638 79.1646 251.239C69.2753 245.845 57.0218 234.194 54.8065 209.315C52.9135 188.052 63.5686 175.885 72.8405 169.422C82.5855 162.629 92.7215 160.751 93.1482 160.674C96.0162 160.155 98.7572 162.062 99.2728 164.926C99.7877 167.784 97.8888 170.519 95.0298 171.04C93.7024 171.286 62.5572 177.422 65.3137 208.382C66.7605 224.631 73.1219 235.94 84.2206 241.993C92.3524 246.428 100.202 246.36 100.28 246.364C103.205 246.286 105.611 248.593 105.682 251.501C105.753 254.41 103.45 256.825 100.538 256.896C100.505 256.897 100.414 256.898 100.271 256.898Z" fill="#25254F"/>
<path d="M534.392 106.034H481.209C474.244 106.034 468.602 111.672 468.602 118.626V157.871V165.786C468.602 167.751 470.752 168.96 472.433 167.941L488.442 158.237C488.835 157.998 489.287 157.871 489.75 157.871H534.392C541.355 157.871 547 152.233 547 145.28V118.625C547 111.671 541.355 106.034 534.392 106.034Z" fill="#FFB703"/>
<path d="M491.897 131.465C491.897 134.139 489.726 136.307 487.05 136.307C484.371 136.307 482.203 134.139 482.203 131.465C482.203 128.791 484.371 126.623 487.05 126.623C489.726 126.623 491.897 128.791 491.897 131.465Z" fill="white"/>
<path d="M513.182 131.465C513.182 134.139 511.01 136.307 508.334 136.307C505.656 136.307 503.484 134.139 503.484 131.465C503.484 128.791 505.656 126.623 508.334 126.623C511.01 126.623 513.182 128.791 513.182 131.465Z" fill="white"/>
<path d="M534.452 131.465C534.452 134.139 532.284 136.307 529.605 136.307C526.929 136.307 524.758 134.139 524.758 131.465C524.758 128.791 526.929 126.623 529.605 126.623C532.284 126.623 534.452 128.791 534.452 131.465Z" fill="white"/>
<path d="M356.191 15.6562H270.669C269.212 15.6562 268.031 14.4783 268.031 13.0219C268.031 11.5685 269.212 10.3905 270.669 10.3905H356.191C357.646 10.3905 358.825 11.5685 358.825 13.0219C358.825 14.4783 357.646 15.6562 356.191 15.6562Z" fill="#F9F9F9"/>
<path d="M310.618 31.4922H270.669C269.212 31.4922 268.031 30.3133 268.031 28.8584C268.031 27.4038 269.212 26.2247 270.669 26.2247H310.618C312.074 26.2247 313.256 27.4038 313.256 28.8584C313.256 30.3133 312.074 31.4922 310.618 31.4922Z" fill="#F9F9F9"/>
<path d="M334.141 47.3281H270.669C269.212 47.3281 268.031 46.1493 268.031 44.6944C268.031 43.2398 269.212 42.0606 270.669 42.0606H334.141C335.596 42.0606 336.776 43.2398 336.776 44.6944C336.776 46.1493 335.596 47.3281 334.141 47.3281Z" fill="#F9F9F9"/>
<path d="M232.933 17.9852C235.397 19.5043 235.843 22.7842 233.861 24.8102C232.394 26.3093 229.973 26.5854 228.149 25.4613C225.685 23.9422 225.239 20.6624 227.221 18.6363C228.688 17.1369 231.109 16.8606 232.933 17.9852ZM235.696 30.8059C235.825 30.7379 235.952 30.6676 236.079 30.5946C236.882 30.1296 237.883 30.1861 238.622 30.7467L239.147 31.1449C240.141 31.8986 241.555 31.7225 242.333 30.7482L242.337 30.7438C243.141 29.7363 242.958 28.2647 241.93 27.4853L241.552 27.199C240.785 26.6167 240.476 25.6222 240.749 24.6988C240.781 24.5901 240.811 24.4811 240.839 24.3715C241.08 23.4403 241.851 22.7434 242.808 22.6344L243.294 22.5791C244.574 22.4328 245.484 21.2648 245.311 19.9898C245.142 18.753 244.015 17.8774 242.773 18.0186L242.127 18.0925C241.201 18.198 240.311 17.7312 239.857 16.9192C239.787 16.7932 239.714 16.6672 239.639 16.5441C239.129 15.7148 239.177 14.657 239.786 13.8951L240.007 13.6197C240.812 12.6116 240.629 11.1406 239.601 10.3612L239.519 10.2967C238.525 9.54359 237.111 9.71941 236.333 10.6923L235.993 11.1172C235.407 11.8527 234.435 12.1486 233.535 11.879C233.364 11.8292 233.193 11.7823 233.021 11.7384C232.103 11.5128 231.413 10.7567 231.285 9.82196L231.214 9.30037C231.046 8.06379 229.918 7.18763 228.677 7.32829L228.567 7.34294C227.287 7.48652 226.377 8.65571 226.55 9.93039L226.601 10.2996C226.732 11.2666 226.231 12.1955 225.368 12.6497C225.241 12.7171 225.115 12.7875 224.991 12.8578C224.188 13.3266 223.184 13.2709 222.444 12.7083L221.911 12.3039C220.917 11.5508 219.503 11.7267 218.725 12.7025L218.722 12.7054C217.917 13.7134 218.101 15.1844 219.129 15.9639L219.524 16.2657C220.291 16.8459 220.6 17.8396 220.329 18.7623C220.299 18.8658 220.27 18.9695 220.243 19.0735C220.002 20.0051 219.231 20.7028 218.274 20.8118L217.764 20.8701C216.484 21.016 215.574 22.1841 215.748 23.459C215.916 24.6962 217.043 25.5718 218.285 25.4302L218.955 25.3538C219.881 25.2483 220.771 25.7165 221.225 26.53C221.291 26.6484 221.36 26.7662 221.431 26.8828C221.939 27.7141 221.891 28.7685 221.283 29.5298L221.041 29.8319C220.236 30.8393 220.42 32.3109 221.447 33.0907L221.529 33.1531C222.523 33.907 223.937 33.7315 224.716 32.7572L225.064 32.3212C225.651 31.5865 226.626 31.2891 227.527 31.5607C227.698 31.6123 227.869 31.6595 228.041 31.7023C228.957 31.9308 229.645 32.6842 229.772 33.6187L229.844 34.1485C230.013 35.3857 231.14 36.2615 232.382 36.1197L232.492 36.1071C233.772 35.9612 234.682 34.7931 234.508 33.5185L234.459 33.1575C234.328 32.1899 234.83 31.2598 235.696 30.8059Z" fill="white"/>
<path d="M252.5 38.8871C254.366 40.0378 254.704 42.5219 253.203 44.0562C252.092 45.1917 250.258 45.4006 248.877 44.5493C247.011 43.3986 246.673 40.9149 248.174 39.3803C249.285 38.2448 251.118 38.0358 252.5 38.8871ZM254.592 48.597C254.69 48.5454 254.787 48.492 254.882 48.4367C255.49 48.0847 256.249 48.1278 256.808 48.5521L257.206 48.8539C257.959 49.4245 259.03 49.2912 259.619 48.5533L259.622 48.5498C260.231 47.7867 260.092 46.6723 259.314 46.0822L259.028 45.8653C258.446 45.4243 258.212 44.6709 258.419 43.9718C258.443 43.8894 258.466 43.8068 258.488 43.7238C258.67 43.0185 259.254 42.4911 259.978 42.4084L260.347 42.3663C261.316 42.2558 262.005 41.3711 261.874 40.4056C261.747 39.4688 260.893 38.8056 259.952 38.9129L259.463 38.9686C258.762 39.0486 258.087 38.6949 257.744 38.0792C257.691 37.984 257.636 37.8899 257.579 37.7964C257.192 37.167 257.229 36.367 257.69 35.79L257.857 35.5803C258.467 34.8172 258.328 33.7025 257.55 33.1123L257.488 33.0649C256.735 32.4937 255.664 32.6271 255.074 33.3646L254.817 33.6864C254.374 34.2417 253.637 34.4676 252.955 34.2634C252.827 34.2247 252.697 34.1892 252.566 34.157C251.871 33.985 251.348 33.4139 251.252 32.705L251.198 32.31C251.071 31.3732 250.217 30.7098 249.276 30.817L249.193 30.8267C248.224 30.9372 247.535 31.8218 247.666 32.7874L247.704 33.0675C247.804 33.7986 247.424 34.5022 246.771 34.8465C246.674 34.8972 246.579 34.9499 246.485 35.0047C245.876 35.3584 245.117 35.3162 244.556 34.8913L244.153 34.5851C243.4 34.0146 242.329 34.1479 241.74 34.8858L241.737 34.889C241.128 35.652 241.267 36.7667 242.045 37.3569L242.345 37.5843C242.926 38.0244 243.159 38.7769 242.954 39.4758C242.931 39.554 242.909 39.6326 242.889 39.7114C242.707 40.417 242.123 40.9453 241.398 41.028L241.012 41.0719C240.042 41.1827 239.353 42.0674 239.485 43.0329C239.612 43.9697 240.466 44.6328 241.407 44.5259L241.913 44.4679C242.615 44.3879 243.289 44.7424 243.633 45.3587C243.683 45.4483 243.735 45.5374 243.789 45.6256C244.174 46.2553 244.137 47.0539 243.676 47.6305L243.494 47.8594C242.884 48.6225 243.023 49.7369 243.801 50.3273L243.864 50.3745C244.616 50.9456 245.687 50.8126 246.277 50.0747L246.54 49.7445C246.985 49.188 247.724 48.9627 248.406 49.1687C248.535 49.2076 248.665 49.2434 248.795 49.2759C249.489 49.4488 250.01 50.0196 250.106 50.727L250.16 51.1284C250.288 52.0653 251.142 52.7287 252.083 52.6214L252.166 52.6118C253.135 52.5013 253.824 51.6166 253.693 50.6511L253.656 50.3777C253.556 49.6451 253.937 48.9404 254.592 48.597Z" fill="white"/>
<path d="M120.038 278.414C118.942 278.414 117.844 278.335 116.75 278.176C110.749 277.302 105.451 274.148 101.828 269.296C98.2051 264.442 96.6938 258.47 97.5719 252.481C99.3846 240.12 110.935 231.534 123.318 233.335C127.461 233.939 131.344 235.664 134.548 238.326C136.788 240.187 137.093 243.508 135.231 245.744C133.368 247.981 130.042 248.286 127.803 246.426C126.093 245.005 124.016 244.083 121.796 243.76C115.166 242.796 108.98 247.392 108.009 254.008C107.54 257.21 108.348 260.404 110.285 262.999C112.224 265.596 115.06 267.284 118.272 267.751C120.491 268.075 122.747 267.783 124.795 266.909C127.474 265.766 130.573 267.008 131.718 269.683C132.862 272.357 131.619 275.453 128.94 276.596C126.119 277.8 123.091 278.414 120.038 278.414Z" fill="#25254F"/>
<path d="M94.4001 249.833L93.8928 253.293C93.4641 256.216 95.508 258.956 98.4347 259.382L104.331 260.241C107.254 260.666 109.996 258.627 110.424 255.708L110.932 252.247C111.36 249.325 109.316 246.585 106.389 246.159L100.493 245.3C97.57 244.874 94.8281 246.914 94.4001 249.833Z" fill="#F9E2E3"/>
</g>
<defs>
<clipPath id="clip0_119_2872">
<rect width="547" height="310" fill="white"/>
</clipPath>
</defs>
</svg>
