<svg width="62" height="62" viewBox="0 0 62 62" fill="none" xmlns="http://www.w3.org/2000/svg">
<g id="approved.svg" clip-path="url(#clip0_2696_668)">
<path id="Vector" opacity="0.2" d="M31 62C48.1208 62 62 48.1208 62 31C62 13.8792 48.1208 0 31 0C13.8792 0 0 13.8792 0 31C0 48.1208 13.8792 62 31 62Z" fill="#2563EB"/>
<path id="Vector_2" d="M30.9998 47.2652C39.983 47.2652 47.2652 39.983 47.2652 30.9998C47.2652 22.0167 39.983 14.7344 30.9998 14.7344C22.0167 14.7344 14.7344 22.0167 14.7344 30.9998C14.7344 39.983 22.0167 47.2652 30.9998 47.2652Z" fill="#2563EB"/>
<path id="Vector_3" d="M28.69 36.8223C28.3647 36.8223 28.0557 36.6922 27.828 36.4644L23.2249 31.8613C22.7532 31.3896 22.7532 30.6089 23.2249 30.1372C23.6966 29.6655 24.4773 29.6655 24.949 30.1372L28.69 33.8782L37.0505 25.5178C37.5222 25.0461 38.3029 25.0461 38.7746 25.5178C39.2463 25.9895 39.2463 26.7702 38.7746 27.2419L29.5521 36.4644C29.3244 36.6922 29.0153 36.8223 28.69 36.8223Z" fill="white"/>
</g>
<defs>
<clipPath id="clip0_2696_668">
<rect width="62" height="62" fill="white"/>
</clipPath>
</defs>
</svg>
