<svg width="15" height="16" viewBox="0 0 15 16" fill="none" xmlns="http://www.w3.org/2000/svg">
<path d="M14.7914 4.15731C14.6976 2.59723 13.3949 1.375 11.826 1.375H11.0621V0.78125C11.0621 0.4535 10.7961 0.1875 10.4683 0.1875C10.1406 0.1875 9.8746 0.4535 9.8746 0.78125V1.375H5.1246V0.78125C5.1246 0.4535 4.8586 0.1875 4.53085 0.1875C4.2031 0.1875 3.9371 0.4535 3.9371 0.78125V1.375H3.17324C1.60396 1.375 0.301271 2.59723 0.207756 4.15731C0.0317087 7.09162 0.0349743 10.0681 0.217552 13.0039C0.310177 14.4948 1.50451 15.6891 2.99541 15.7817C4.48958 15.8747 5.99444 15.921 7.4993 15.921C9.00386 15.921 10.509 15.8747 12.0032 15.7817C13.4941 15.6891 14.6884 14.4948 14.7811 13.0039C14.9639 10.0696 14.9672 7.09341 14.7914 4.15731ZM13.5962 12.9303C13.5404 13.8247 12.8241 14.5411 11.9299 14.5966C8.99021 14.7792 6.00899 14.7792 3.06933 14.5966C2.17485 14.5408 1.45849 13.8245 1.40297 12.9303C1.26255 10.6731 1.23376 8.39223 1.30886 6.125H13.6906C13.7654 8.39312 13.7366 10.674 13.5962 12.9303ZM4.53085 3.75C4.8586 3.75 5.1246 3.484 5.1246 3.15625V2.5625H9.8746V3.15625C9.8746 3.484 10.1406 3.75 10.4683 3.75C10.7961 3.75 11.0621 3.484 11.0621 3.15625V2.5625H11.826C12.7679 2.5625 13.5499 3.2943 13.606 4.22827C13.62 4.46398 13.6259 4.70119 13.6375 4.9375H1.36171C1.37358 4.70119 1.37922 4.46398 1.39318 4.22827C1.44929 3.2943 2.23096 2.5625 3.17324 2.5625H3.9371V3.15625C3.9371 3.484 4.2031 3.75 4.53085 3.75Z" fill="#18181B"/>
<path d="M4.53125 9.6875C5.02313 9.6875 5.42188 9.28875 5.42188 8.79688C5.42188 8.305 5.02313 7.90625 4.53125 7.90625C4.03937 7.90625 3.64062 8.305 3.64062 8.79688C3.64062 9.28875 4.03937 9.6875 4.53125 9.6875Z" fill="#18181B"/>
<path d="M7.5 9.6875C7.99188 9.6875 8.39062 9.28875 8.39062 8.79688C8.39062 8.305 7.99188 7.90625 7.5 7.90625C7.00812 7.90625 6.60938 8.305 6.60938 8.79688C6.60938 9.28875 7.00812 9.6875 7.5 9.6875Z" fill="#18181B"/>
<path d="M4.53125 12.6562C5.02313 12.6562 5.42188 12.2575 5.42188 11.7656C5.42188 11.2737 5.02313 10.875 4.53125 10.875C4.03937 10.875 3.64062 11.2737 3.64062 11.7656C3.64062 12.2575 4.03937 12.6562 4.53125 12.6562Z" fill="#18181B"/>
<path d="M10.4688 9.6875C10.9606 9.6875 11.3594 9.28875 11.3594 8.79688C11.3594 8.305 10.9606 7.90625 10.4688 7.90625C9.97687 7.90625 9.57812 8.305 9.57812 8.79688C9.57812 9.28875 9.97687 9.6875 10.4688 9.6875Z" fill="#18181B"/>
<path d="M10.4688 12.6562C10.9606 12.6562 11.3594 12.2575 11.3594 11.7656C11.3594 11.2737 10.9606 10.875 10.4688 10.875C9.97687 10.875 9.57812 11.2737 9.57812 11.7656C9.57812 12.2575 9.97687 12.6562 10.4688 12.6562Z" fill="#18181B"/>
<path d="M7.5 12.6562C7.99188 12.6562 8.39062 12.2575 8.39062 11.7656C8.39062 11.2737 7.99188 10.875 7.5 10.875C7.00812 10.875 6.60938 11.2737 6.60938 11.7656C6.60938 12.2575 7.00812 12.6562 7.5 12.6562Z" fill="#18181B"/>
</svg>
