<svg width="54" height="54" viewBox="0 0 54 54" fill="none" xmlns="http://www.w3.org/2000/svg">
<g id="columns">
<g id="Group">
<path id="Vector" d="M40.5 47.25H13.5C9.675 47.25 6.75 44.325 6.75 40.5V13.5C6.75 9.675 9.675 6.75 13.5 6.75H40.5C44.325 6.75 47.25 9.675 47.25 13.5V40.5C47.25 44.325 44.325 47.25 40.5 47.25ZM13.5 11.25C12.15 11.25 11.25 12.15 11.25 13.5V40.5C11.25 41.85 12.15 42.75 13.5 42.75H40.5C41.85 42.75 42.75 41.85 42.75 40.5V13.5C42.75 12.15 41.85 11.25 40.5 11.25H13.5Z" fill="#2563EB"/>
</g>
<g id="Group_2">
<path id="Vector_2" d="M27 47.25C25.65 47.25 24.75 46.35 24.75 45V9C24.75 7.65 25.65 6.75 27 6.75C28.35 6.75 29.25 7.65 29.25 9V45C29.25 46.35 28.35 47.25 27 47.25Z" fill="#2563EB"/>
</g>
</g>
</svg>
