<svg width="14" height="15" viewBox="0 0 14 15" fill="none" xmlns="http://www.w3.org/2000/svg">
<path d="M7 0.96875C10.7188 0.96875 13.7812 4.03125 13.7812 7.75C13.7812 11.4961 10.7188 14.5312 7 14.5312C3.25391 14.5312 0.21875 11.4961 0.21875 7.75C0.21875 4.03125 3.25391 0.96875 7 0.96875ZM10.1992 10.457C10.2266 10.4023 10.2539 10.3203 10.2539 10.2383C10.2539 10.1836 10.2539 10.1016 10.1992 10.0469L9.54297 9.14453C9.40625 8.98047 9.16016 8.95312 9.02344 9.11719C9.02344 9.11719 8.28516 9.88281 7.24609 9.88281C5.90625 9.88281 5.19531 8.78906 5.19531 7.72266C5.19531 6.54688 5.96094 5.64453 7.21875 5.64453C8.20312 5.64453 8.91406 6.27344 8.91406 6.27344C9.07812 6.4375 9.29688 6.38281 9.40625 6.21875L10.0352 5.28906C10.0625 5.23438 10.0898 5.15234 10.0898 5.09766C10.0898 5.01562 10.0352 4.93359 9.98047 4.87891C9.95312 4.82422 8.99609 3.8125 7.16406 3.8125C4.92188 3.8125 3.22656 5.50781 3.22656 7.72266C3.22656 9.99219 4.86719 11.7148 7.19141 11.7148C9.10547 11.7148 10.1445 10.5117 10.1992 10.457Z" fill="white"/>
</svg>
