<svg width="96" height="188" viewBox="0 0 96 188" fill="none" xmlns="http://www.w3.org/2000/svg">
<path d="M47.8241 160.227C49.1172 160.227 50.1661 161.276 50.1661 162.571C50.1661 163.864 49.1172 164.913 47.8241 164.913C46.5293 164.913 45.4805 163.864 45.4805 162.571C45.4805 161.276 46.5293 160.227 47.8241 160.227Z" fill="#EE6A5F"/>
<path d="M47.8241 132.254C49.1172 132.254 50.1661 133.303 50.1661 134.596C50.1661 135.891 49.1172 136.94 47.8241 136.94C46.5293 136.94 45.4805 135.891 45.4805 134.596C45.4805 133.303 46.5293 132.254 47.8241 132.254Z" fill="#EE6A5F"/>
<path d="M47.8241 106.63C49.1172 106.63 50.1661 107.679 50.1661 108.972C50.1661 110.267 49.1172 111.316 47.8241 111.316C46.5293 111.316 45.4805 110.267 45.4805 108.972C45.4805 107.679 46.5293 106.63 47.8241 106.63Z" fill="#EE6A5F"/>
<path d="M47.8241 78.6553C49.1172 78.6553 50.1661 79.7041 50.1661 80.9973C50.1661 82.2904 49.1172 83.3392 47.8241 83.3392C46.5293 83.3392 45.4805 82.2904 45.4805 80.9973C45.4805 79.7041 46.5293 78.6553 47.8241 78.6553Z" fill="#EE6A5F"/>
<path d="M47.8241 49.4888C49.1172 49.4888 50.1661 50.5376 50.1661 51.8307C50.1661 53.1255 49.1172 54.1743 47.8241 54.1743C46.5293 54.1743 45.4805 53.1255 45.4805 51.8307C45.4805 50.5376 46.5293 49.4888 47.8241 49.4888Z" fill="#EE6A5F"/>
<path d="M72.1388 132.254C73.4335 132.254 74.4824 133.303 74.4824 134.596C74.4824 135.891 73.4335 136.94 72.1388 136.94C70.8457 136.94 69.7968 135.891 69.7968 134.596C69.7968 133.303 70.8457 132.254 72.1388 132.254Z" fill="#EE6A5F"/>
<path d="M72.1388 106.63C73.4335 106.63 74.4824 107.679 74.4824 108.972C74.4824 110.267 73.4335 111.316 72.1388 111.316C70.8457 111.316 69.7968 110.267 69.7968 108.972C69.7968 107.679 70.8457 106.63 72.1388 106.63Z" fill="#EE6A5F"/>
<path d="M72.1388 78.6553C73.4335 78.6553 74.4824 79.7041 74.4824 80.9973C74.4824 82.2904 73.4335 83.3392 72.1388 83.3392C70.8457 83.3392 69.7968 82.2904 69.7968 80.9973C69.7968 79.7041 70.8457 78.6553 72.1388 78.6553Z" fill="#EE6A5F"/>
<path d="M93.658 106.63C94.9511 106.63 96 107.679 96 108.972C96 110.267 94.9511 111.316 93.658 111.316C92.3633 111.316 91.316 110.267 91.316 108.972C91.316 107.679 92.3633 106.63 93.658 106.63Z" fill="#EE6A5F"/>
<path d="M93.658 78.6553C94.9511 78.6553 96 79.7041 96 80.9973C96 82.2904 94.9511 83.3392 93.658 83.3392C92.3633 83.3392 91.316 82.2904 91.316 80.9973C91.316 79.7041 92.3633 78.6553 93.658 78.6553Z" fill="#EE6A5F"/>
<path d="M72.1388 49.4888C73.4335 49.4888 74.4824 50.5376 74.4824 51.8307C74.4824 53.1255 73.4335 54.1743 72.1388 54.1743C70.8457 54.1743 69.7968 53.1255 69.7968 51.8307C69.7968 50.5376 70.8457 49.4888 72.1388 49.4888Z" fill="#EE6A5F"/>
<path d="M47.8241 24.7454C49.1172 24.7454 50.1661 25.7942 50.1661 27.0873C50.1661 28.3821 49.1172 29.4309 47.8241 29.4309C46.5293 29.4309 45.4805 28.3821 45.4805 27.0873C45.4805 25.7942 46.5293 24.7454 47.8241 24.7454Z" fill="#EE6A5F"/>
<path d="M20.1429 160.227C21.4361 160.227 22.4849 161.276 22.4849 162.571C22.4849 163.864 21.4361 164.913 20.1429 164.913C18.8482 164.913 17.7993 163.864 17.7993 162.571C17.7993 161.276 18.8482 160.227 20.1429 160.227Z" fill="#EE6A5F"/>
<path d="M20.1429 132.254C21.4361 132.254 22.4849 133.303 22.4849 134.596C22.4849 135.891 21.4361 136.94 20.1429 136.94C18.8482 136.94 17.7993 135.891 17.7993 134.596C17.7993 133.303 18.8482 132.254 20.1429 132.254Z" fill="#EE6A5F"/>
<path d="M20.1429 106.63C21.4361 106.63 22.4849 107.679 22.4849 108.972C22.4849 110.267 21.4361 111.316 20.1429 111.316C18.8482 111.316 17.7993 110.267 17.7993 108.972C17.7993 107.679 18.8482 106.63 20.1429 106.63Z" fill="#EE6A5F"/>
<path d="M20.1429 78.6553C21.4361 78.6553 22.4849 79.7041 22.4849 80.9973C22.4849 82.2904 21.4361 83.3392 20.1429 83.3392C18.8482 83.3392 17.7993 82.2904 17.7993 80.9973C17.7993 79.7041 18.8482 78.6553 20.1429 78.6553Z" fill="#EE6A5F"/>
<path d="M20.1429 49.4888C21.4361 49.4888 22.4849 50.5376 22.4849 51.8307C22.4849 53.1255 21.4361 54.1743 20.1429 54.1743C18.8482 54.1743 17.7993 53.1255 17.7993 51.8307C17.7993 50.5376 18.8482 49.4888 20.1429 49.4888Z" fill="#EE6A5F"/>
<path d="M20.1429 24.7454C21.4361 24.7454 22.4849 25.7942 22.4849 27.0873C22.4849 28.3821 21.4361 29.4309 20.1429 29.4309C18.8482 29.4309 17.7993 28.3821 17.7993 27.0873C17.7993 25.7942 18.8482 24.7454 20.1429 24.7454Z" fill="#EE6A5F"/>
<path d="M20.1429 0.000115497C21.4361 0.00011544 22.4849 1.04897 22.4849 2.34369C22.4849 3.63685 21.4361 4.68567 20.1429 4.68567C18.8482 4.68567 17.7993 3.63685 17.7993 2.34369C17.7993 1.04897 18.8482 0.000115554 20.1429 0.000115497Z" fill="#EE6A5F"/>
<path d="M20.1429 182.532C21.4361 182.532 22.4849 183.581 22.4849 184.874C22.4849 186.169 21.4361 187.218 20.1429 187.218C18.8482 187.218 17.7993 186.169 17.7993 184.874C17.7993 183.581 18.8482 182.532 20.1429 182.532Z" fill="#EE6A5F"/>
</svg>
