<svg width="162" height="167" viewBox="0 0 162 167" fill="none" xmlns="http://www.w3.org/2000/svg">
<g id="Group 1948764566">
<path id="path14" d="M118.427 142.859C119.58 142.859 120.516 143.795 120.516 144.949C120.516 146.102 119.58 147.037 118.427 147.037C117.273 147.037 116.338 146.102 116.338 144.949C116.338 143.795 117.273 142.859 118.427 142.859Z" fill="#18181B"/>
<path id="path16" d="M118.427 117.918C119.58 117.918 120.516 118.853 120.516 120.006C120.516 121.161 119.58 122.096 118.427 122.096C117.273 122.096 116.338 121.161 116.338 120.006C116.338 118.853 117.273 117.918 118.427 117.918Z" fill="#18181B"/>
<path id="path18" d="M118.427 95.0713C119.58 95.0713 120.516 96.0065 120.516 97.1595C120.516 98.3139 119.58 99.249 118.427 99.249C117.273 99.249 116.338 98.3139 116.338 97.1595C116.338 96.0065 117.273 95.0713 118.427 95.0713Z" fill="#18181B"/>
<path id="path20" d="M118.427 70.1304C119.58 70.1304 120.516 71.0655 120.516 72.2185C120.516 73.3715 119.58 74.3066 118.427 74.3066C117.273 74.3066 116.338 73.3715 116.338 72.2185C116.338 71.0655 117.273 70.1304 118.427 70.1304Z" fill="#18181B"/>
<path id="path22" d="M118.427 44.1251C119.58 44.1251 120.516 45.0602 120.516 46.2132C120.516 47.3676 119.58 48.3027 118.427 48.3027C117.273 48.3027 116.338 47.3676 116.338 46.2132C116.338 45.0602 117.273 44.1251 118.427 44.1251Z" fill="#18181B"/>
<path id="path24" d="M140.106 117.918C141.26 117.918 142.195 118.853 142.195 120.006C142.195 121.161 141.26 122.096 140.106 122.096C138.953 122.096 138.018 121.161 138.018 120.006C138.018 118.853 138.953 117.918 140.106 117.918Z" fill="#18181B"/>
<path id="path26" d="M140.106 95.0713C141.26 95.0713 142.195 96.0065 142.195 97.1595C142.195 98.3139 141.26 99.249 140.106 99.249C138.953 99.249 138.018 98.3139 138.018 97.1595C138.018 96.0065 138.953 95.0713 140.106 95.0713Z" fill="#18181B"/>
<path id="path28" d="M140.106 70.1304C141.26 70.1304 142.195 71.0655 142.195 72.2185C142.195 73.3715 141.26 74.3066 140.106 74.3066C138.953 74.3066 138.018 73.3715 138.018 72.2185C138.018 71.0655 138.953 70.1304 140.106 70.1304Z" fill="#18181B"/>
<path id="path30" d="M159.295 95.0713C160.448 95.0713 161.383 96.0065 161.383 97.1595C161.383 98.3139 160.448 99.249 159.295 99.249C158.14 99.249 157.206 98.3139 157.206 97.1595C157.206 96.0065 158.14 95.0713 159.295 95.0713Z" fill="#18181B"/>
<path id="path32" d="M159.295 70.1304C160.448 70.1304 161.383 71.0655 161.383 72.2185C161.383 73.3715 160.448 74.3066 159.295 74.3066C158.14 74.3066 157.206 73.3715 157.206 72.2185C157.206 71.0655 158.14 70.1304 159.295 70.1304Z" fill="#18181B"/>
<path id="path34" d="M140.106 44.1251C141.26 44.1251 142.195 45.0602 142.195 46.2132C142.195 47.3676 141.26 48.3027 140.106 48.3027C138.953 48.3027 138.018 47.3676 138.018 46.2132C138.018 45.0602 138.953 44.1251 140.106 44.1251Z" fill="#18181B"/>
<path id="path36" d="M20.7087 117.918C21.8617 117.918 22.7969 118.853 22.7969 120.006C22.7969 121.161 21.8617 122.096 20.7087 122.096C19.5557 122.096 18.6206 121.161 18.6206 120.006C18.6206 118.853 19.5557 117.918 20.7087 117.918Z" fill="#18181B"/>
<path id="path38" d="M20.7087 95.0713C21.8617 95.0713 22.7969 96.0065 22.7969 97.1595C22.7969 98.3139 21.8617 99.249 20.7087 99.249C19.5557 99.249 18.6206 98.3139 18.6206 97.1595C18.6206 96.0065 19.5557 95.0713 20.7087 95.0713Z" fill="#18181B"/>
<path id="path40" d="M20.7087 70.1304C21.8617 70.1304 22.7969 71.0655 22.7969 72.2185C22.7969 73.3715 21.8617 74.3066 20.7087 74.3066C19.5557 74.3066 18.6206 73.3715 18.6206 72.2185C18.6206 71.0655 19.5557 70.1304 20.7087 70.1304Z" fill="#18181B"/>
<path id="path42" d="M2.09152 95.0713C3.24452 95.0713 4.17969 96.0065 4.17969 97.1595C4.17969 98.3139 3.24452 99.249 2.09152 99.249C0.937141 99.249 0.00200554 98.3139 0.00200549 97.1595C0.00200544 96.0065 0.937141 95.0713 2.09152 95.0713Z" fill="#18181B"/>
<path id="path44" d="M2.09152 70.1304C3.24452 70.1304 4.17969 71.0655 4.17969 72.2185C4.17969 73.3715 3.24452 74.3066 2.09152 74.3066C0.937141 74.3066 0.00200554 73.3715 0.00200549 72.2185C0.00200544 71.0655 0.937141 70.1304 2.09152 70.1304Z" fill="#18181B"/>
<path id="path46" d="M20.7087 44.1251C21.8617 44.1251 22.7969 45.0602 22.7969 46.2132C22.7969 47.3676 21.8617 48.3027 20.7087 48.3027C19.5557 48.3027 18.6206 47.3676 18.6206 46.2132C18.6206 45.0602 19.5557 44.1251 20.7087 44.1251Z" fill="#18181B"/>
<path id="path48" d="M118.427 22.0626C119.58 22.0626 120.516 22.9977 120.516 24.1507C120.516 25.3051 119.58 26.2402 118.427 26.2402C117.273 26.2402 116.338 25.3051 116.338 24.1507C116.338 22.9977 117.273 22.0626 118.427 22.0626Z" fill="#18181B"/>
<path id="path50" d="M93.7478 142.859C94.9008 142.859 95.8359 143.795 95.8359 144.949C95.8359 146.102 94.9008 147.037 93.7478 147.037C92.5934 147.037 91.6582 146.102 91.6582 144.949C91.6582 143.795 92.5934 142.859 93.7478 142.859Z" fill="#18181B"/>
<path id="path52" d="M93.7478 117.918C94.9008 117.918 95.8359 118.853 95.8359 120.006C95.8359 121.161 94.9008 122.096 93.7478 122.096C92.5934 122.096 91.6582 121.161 91.6582 120.006C91.6582 118.853 92.5934 117.918 93.7478 117.918Z" fill="#18181B"/>
<path id="path54" d="M93.7478 95.0713C94.9008 95.0713 95.8359 96.0065 95.8359 97.1595C95.8359 98.3139 94.9008 99.249 93.7478 99.249C92.5934 99.249 91.6582 98.3139 91.6582 97.1595C91.6582 96.0065 92.5934 95.0713 93.7478 95.0713Z" fill="#18181B"/>
<path id="path56" d="M93.7478 70.1304C94.9008 70.1304 95.8359 71.0655 95.8359 72.2185C95.8359 73.3715 94.9008 74.3066 93.7478 74.3066C92.5934 74.3066 91.6582 73.3715 91.6582 72.2185C91.6582 71.0655 92.5934 70.1304 93.7478 70.1304Z" fill="#18181B"/>
<path id="path58" d="M93.7478 44.1251C94.9008 44.1251 95.8359 45.0602 95.8359 46.2132C95.8359 47.3676 94.9008 48.3027 93.7478 48.3027C92.5934 48.3027 91.6582 47.3676 91.6582 46.2132C91.6582 45.0602 92.5934 44.1251 93.7478 44.1251Z" fill="#18181B"/>
<path id="path60" d="M93.7478 22.0626C94.9008 22.0626 95.8359 22.9977 95.8359 24.1507C95.8359 25.3051 94.9008 26.2402 93.7478 26.2402C92.5934 26.2402 91.6582 25.3051 91.6582 24.1507C91.6582 22.9977 92.5934 22.0626 93.7478 22.0626Z" fill="#18181B"/>
<path id="path62" d="M66.8011 142.859C67.9555 142.859 68.8906 143.795 68.8906 144.949C68.8906 146.102 67.9555 147.037 66.8011 147.037C65.6481 147.037 64.7129 146.102 64.7129 144.949C64.7129 143.795 65.6481 142.859 66.8011 142.859Z" fill="#18181B"/>
<path id="path64" d="M66.8011 117.918C67.9555 117.918 68.8906 118.853 68.8906 120.006C68.8906 121.161 67.9555 122.096 66.8011 122.096C65.6481 122.096 64.7129 121.161 64.7129 120.006C64.7129 118.853 65.6481 117.918 66.8011 117.918Z" fill="#18181B"/>
<path id="path66" d="M66.8011 95.0713C67.9555 95.0713 68.8906 96.0065 68.8906 97.1595C68.8906 98.3139 67.9555 99.249 66.8011 99.249C65.6481 99.249 64.7129 98.3139 64.7129 97.1595C64.7129 96.0065 65.6481 95.0713 66.8011 95.0713Z" fill="#18181B"/>
<path id="path68" d="M66.8011 70.1304C67.9555 70.1304 68.8906 71.0655 68.8906 72.2185C68.8906 73.3715 67.9555 74.3066 66.8011 74.3066C65.6481 74.3066 64.7129 73.3715 64.7129 72.2185C64.7129 71.0655 65.6481 70.1304 66.8011 70.1304Z" fill="#18181B"/>
<path id="path70" d="M66.8011 44.1251C67.9555 44.1251 68.8906 45.0602 68.8906 46.2132C68.8906 47.3676 67.9555 48.3027 66.8011 48.3027C65.6481 48.3027 64.7129 47.3676 64.7129 46.2132C64.7129 45.0602 65.6481 44.1251 66.8011 44.1251Z" fill="#18181B"/>
<path id="path72" d="M66.8011 22.0626C67.9555 22.0626 68.8906 22.9977 68.8906 24.1507C68.8906 25.3051 67.9555 26.2402 66.8011 26.2402C65.6481 26.2402 64.7129 25.3051 64.7129 24.1507C64.7129 22.9977 65.6481 22.0626 66.8011 22.0626Z" fill="#18181B"/>
<path id="path74" d="M93.7478 5.25434e-05C94.9008 5.2493e-05 95.8359 0.935222 95.8359 2.0896C95.8359 3.2426 94.9008 4.17773 93.7478 4.17773C92.5934 4.17773 91.6582 3.2426 91.6582 2.0896C91.6582 0.935222 92.5934 5.25938e-05 93.7478 5.25434e-05Z" fill="#18181B"/>
<path id="path76" d="M66.8011 5.25434e-05C67.9555 5.2493e-05 68.8906 0.935222 68.8906 2.0896C68.8906 3.2426 67.9555 4.17773 66.8011 4.17773C65.6481 4.17773 64.7129 3.2426 64.7129 2.0896C64.7129 0.935222 65.6481 5.25938e-05 66.8011 5.25434e-05Z" fill="#18181B"/>
<path id="path78" d="M93.7478 162.747C94.9008 162.747 95.8359 163.682 95.8359 164.835C95.8359 165.99 94.9008 166.925 93.7478 166.925C92.5934 166.925 91.6582 165.99 91.6582 164.835C91.6582 163.682 92.5934 162.747 93.7478 162.747Z" fill="#18181B"/>
<path id="path80" d="M66.8011 162.747C67.9555 162.747 68.8906 163.682 68.8906 164.835C68.8906 165.99 67.9555 166.925 66.8011 166.925C65.6481 166.925 64.7129 165.99 64.7129 164.835C64.7129 163.682 65.6481 162.747 66.8011 162.747Z" fill="#18181B"/>
<path id="path82" d="M42.1214 142.859C43.2758 142.859 44.2109 143.795 44.2109 144.949C44.2109 146.102 43.2758 147.037 42.1214 147.037C40.9684 147.037 40.0332 146.102 40.0332 144.949C40.0332 143.795 40.9684 142.859 42.1214 142.859Z" fill="#18181B"/>
<path id="path84" d="M42.1214 117.918C43.2758 117.918 44.2109 118.853 44.2109 120.006C44.2109 121.161 43.2758 122.096 42.1214 122.096C40.9684 122.096 40.0332 121.161 40.0332 120.006C40.0332 118.853 40.9684 117.918 42.1214 117.918Z" fill="#18181B"/>
<path id="path86" d="M42.1214 95.0713C43.2758 95.0713 44.2109 96.0065 44.2109 97.1595C44.2109 98.3139 43.2758 99.249 42.1214 99.249C40.9684 99.249 40.0332 98.3139 40.0332 97.1595C40.0332 96.0065 40.9684 95.0713 42.1214 95.0713Z" fill="#18181B"/>
<path id="path88" d="M42.1214 70.1304C43.2758 70.1304 44.2109 71.0655 44.2109 72.2185C44.2109 73.3715 43.2758 74.3066 42.1214 74.3066C40.9684 74.3066 40.0332 73.3715 40.0332 72.2185C40.0332 71.0655 40.9684 70.1304 42.1214 70.1304Z" fill="#18181B"/>
<path id="path90" d="M42.1214 44.1251C43.2758 44.1251 44.2109 45.0602 44.2109 46.2132C44.2109 47.3676 43.2758 48.3027 42.1214 48.3027C40.9684 48.3027 40.0332 47.3676 40.0332 46.2132C40.0332 45.0602 40.9684 44.1251 42.1214 44.1251Z" fill="#18181B"/>
<path id="path92" d="M42.1214 22.0626C43.2758 22.0626 44.2109 22.9977 44.2109 24.1507C44.2109 25.3051 43.2758 26.2402 42.1214 26.2402C40.9684 26.2402 40.0332 25.3051 40.0332 24.1507C40.0332 22.9977 40.9684 22.0626 42.1214 22.0626Z" fill="#18181B"/>
</g>
</svg>
