<svg width="62" height="62" viewBox="0 0 62 62" fill="none" xmlns="http://www.w3.org/2000/svg">
<g id="download.svg" clip-path="url(#clip0_2696_683)">
<path id="Vector" opacity="0.2" d="M31 62C48.1208 62 62 48.1208 62 31C62 13.8792 48.1208 0 31 0C13.8792 0 0 13.8792 0 31C0 48.1208 13.8792 62 31 62Z" fill="#2563EB"/>
<path id="Vector_2" d="M44.8246 28.0558H40.1239C36.269 28.0558 33.1298 24.9165 33.1298 21.0616V16.3609C33.1298 15.4663 32.3978 14.7344 31.5032 14.7344H24.6067C19.5969 14.7344 15.5469 17.9875 15.5469 23.7942V38.2054C15.5469 44.0122 19.5969 47.2652 24.6067 47.2652H37.3913C42.4011 47.2652 46.4512 44.0122 46.4512 38.2054V29.6823C46.4512 28.7877 45.7192 28.0558 44.8246 28.0558Z" fill="#2563EB"/>
<path id="Vector_3" d="M37.1811 15.0748C36.5142 14.4079 35.3594 14.8634 35.3594 15.7905V21.4671C35.3594 23.8419 37.3763 25.81 39.8324 25.81C41.3776 25.8263 43.5246 25.8263 45.3626 25.8263C46.2898 25.8263 46.7777 24.7365 46.1271 24.0859C43.7849 21.7274 39.5884 17.4821 37.1811 15.0748Z" fill="#2563EB"/>
<path id="Vector_4" d="M31.4552 35.4246C30.9835 34.9529 30.2027 34.9529 29.731 35.4246L28.5599 36.5957V29.7805C28.5599 29.1136 28.0069 28.5605 27.34 28.5605C26.6731 28.5605 26.1201 29.1136 26.1201 29.7805V36.5957L24.949 35.4246C24.4773 34.9529 23.6966 34.9529 23.2249 35.4246C22.7532 35.8963 22.7532 36.677 23.2249 37.1487L26.4779 40.4018C26.4942 40.418 26.5105 40.418 26.5105 40.4343C26.6081 40.5319 26.7382 40.6132 26.8683 40.6783C27.031 40.7271 27.1774 40.7596 27.34 40.7596C27.5027 40.7596 27.6491 40.7271 27.7954 40.662C27.9418 40.597 28.072 40.5156 28.2021 40.4018L31.4552 37.1487C31.9269 36.677 31.9269 35.8963 31.4552 35.4246Z" fill="white"/>
</g>
<defs>
<clipPath id="clip0_2696_683">
<rect width="62" height="62" fill="white"/>
</clipPath>
</defs>
</svg>
