<svg width="62" height="62" viewBox="0 0 62 62" fill="none" xmlns="http://www.w3.org/2000/svg">
<g id="easy-fast.svg" clip-path="url(#clip0_2696_652)">
<path id="Vector" d="M31 62C48.1208 62 62 48.1208 62 31C62 13.8792 48.1208 0 31 0C13.8792 0 0 13.8792 0 31C0 48.1208 13.8792 62 31 62Z" fill="#2563EB" fill-opacity="0.2"/>
<path id="Vector_2" d="M31.0025 17.4512V44.5494L29.7012 46.0295C27.8958 48.079 26.4156 47.526 26.4156 44.7934V33.0823H21.3896C19.1124 33.0823 18.4781 31.6834 19.9908 29.9756L31.0025 17.4512Z" fill="#2563EB"/>
<path id="Vector_3" d="M42.0117 32.024L31 44.5484V17.4501L32.3012 15.97C34.1067 13.9205 35.5868 14.4736 35.5868 17.2062V28.9173H40.6128C42.89 28.9173 43.5244 30.3161 42.0117 32.024Z" fill="#2563EB"/>
</g>
<defs>
<clipPath id="clip0_2696_652">
<rect width="62" height="62" fill="white"/>
</clipPath>
</defs>
</svg>
