<svg width="62" height="62" viewBox="0 0 62 62" fill="none" xmlns="http://www.w3.org/2000/svg">
<g id="free-use.svg" clip-path="url(#clip0_2696_728)">
<path id="Vector" opacity="0.2" d="M31 62C48.1208 62 62 48.1208 62 31C62 13.8792 48.1208 0 31 0C13.8792 0 0 13.8792 0 31C0 48.1208 13.8792 62 31 62Z" fill="#2563EB"/>
<path id="Vector_2" d="M18.2615 36.3668L25.6297 43.7351C28.6551 46.7605 33.5673 46.7605 36.6089 43.7351L43.7494 36.5946C46.7748 33.5692 46.7748 28.657 43.7494 25.6154L36.3649 18.2634C34.8197 16.7182 32.6889 15.8887 30.5094 16.0025L22.3766 16.3929C19.1236 16.5393 16.5374 19.1255 16.3747 22.3623L15.9843 30.495C15.8867 32.6909 16.7163 34.8216 18.2615 36.3668Z" fill="#2563EB"/>
<path id="Vector_3" d="M26.9345 31.6189C29.5216 31.6189 31.6189 29.5216 31.6189 26.9345C31.6189 24.3473 29.5216 22.25 26.9345 22.25C24.3473 22.25 22.25 24.3473 22.25 26.9345C22.25 29.5216 24.3473 31.6189 26.9345 31.6189Z" fill="white"/>
</g>
<defs>
<clipPath id="clip0_2696_728">
<rect width="62" height="62" fill="white"/>
</clipPath>
</defs>
</svg>
