<svg width="147" height="159" viewBox="0 0 147 159" fill="none" xmlns="http://www.w3.org/2000/svg">
<path fill-rule="evenodd" clip-rule="evenodd" d="M124.98 135.254C131.734 133.731 139.5 133.005 146 135.975C142.298 142.683 139.756 152.219 135.022 158.131C134.476 158.812 130.801 153.391 130.653 153.126C127.394 147.334 124.994 141.292 122.679 135.082" fill="#18181B"/>
<path d="M124.98 135.254C131.734 133.731 139.5 133.005 146 135.975C142.298 142.683 139.756 152.219 135.022 158.131C134.476 158.812 130.801 153.391 130.653 153.126C127.394 147.334 124.994 141.292 122.679 135.082" stroke="#18181B" stroke-miterlimit="1.5" stroke-linecap="round" stroke-linejoin="round"/>
<path d="M136.058 135.024C142.865 100.094 129.613 59.6904 96.0282 44.6539C87.3985 40.7902 76.7804 36.0644 67.0918 38.4542C61.5993 39.8093 55.015 43.8882 53.4247 49.5894C50.4545 60.2397 62.4286 68.7056 72.3411 64.7937C77.3406 62.8208 83.2257 56.1577 84.7896 51.0254C85.9022 47.3777 86.3059 43.4201 85.1628 39.6929C75.4598 8.05755 30.375 -7.06401 0.997071 5.3122" stroke="#18181B" stroke-miterlimit="1.5" stroke-linecap="round" stroke-linejoin="round"/>
</svg>
