<svg width="62" height="62" viewBox="0 0 62 62" fill="none" xmlns="http://www.w3.org/2000/svg">
<g id="linkedin.svg" clip-path="url(#clip0_2696_700)">
<path id="Vector" opacity="0.2" d="M31 62C48.1208 62 62 48.1208 62 31C62 13.8792 48.1208 0 31 0C13.8792 0 0 13.8792 0 31C0 48.1208 13.8792 62 31 62Z" fill="#2563EB"/>
<path id="Vector_2" d="M41.3238 46.5235C34.4481 47.2574 27.5516 47.2574 20.6759 46.5235C17.9343 46.2309 15.7688 44.0654 15.4762 41.3236C14.7423 34.4479 14.7423 27.5516 15.4762 20.6759C15.7688 17.9343 17.9343 15.7688 20.6759 15.4762C27.5516 14.7423 34.4479 14.7423 41.3236 15.4762C44.0654 15.7688 46.2309 17.9343 46.5235 20.6759C47.2574 27.5516 47.2574 34.4479 46.5235 41.3236C46.2309 44.0654 44.0657 46.2309 41.3238 46.5235Z" fill="#2563EB"/>
<path id="Vector_3" d="M21.2891 27.7656H25.546V40.9626H21.2891V27.7656Z" fill="white"/>
<path id="Vector_4" d="M36.859 27.4805C33.7394 27.4805 32.3691 29.2143 32.0242 29.7422V27.7645H28.1016V40.9616H32.3588V34.3327C32.3588 32.4171 33.2405 30.9271 34.913 30.9271C36.5853 30.9271 36.859 32.7818 36.859 35.0626V40.9616H41.1162V31.7377C41.1162 29.3865 39.2102 27.4805 36.859 27.4805Z" fill="white"/>
<path id="Vector_5" d="M25.9508 23.5693C25.9508 24.9689 24.8164 26.1032 23.4169 26.1032C22.0174 26.1032 20.8828 24.9689 20.8828 23.5693C20.8828 22.1698 22.0174 21.0352 23.4169 21.0352C24.8164 21.0352 25.9508 22.1698 25.9508 23.5693Z" fill="white"/>
</g>
<defs>
<clipPath id="clip0_2696_700">
<rect width="62" height="62" fill="white"/>
</clipPath>
</defs>
</svg>
