<svg width="13" height="13" viewBox="0 0 13 13" fill="none" xmlns="http://www.w3.org/2000/svg">
<path d="M12.1016 0.625C12.5664 0.625 12.9766 1.03516 12.9766 1.52734V12C12.9766 12.4922 12.5664 12.875 12.1016 12.875H1.57422C1.10938 12.875 0.726562 12.4922 0.726562 12V1.52734C0.726562 1.03516 1.10938 0.625 1.57422 0.625H12.1016ZM4.41797 11.125V5.30078H2.61328V11.125H4.41797ZM3.51562 4.48047C4.08984 4.48047 4.55469 4.01562 4.55469 3.44141C4.55469 2.86719 4.08984 2.375 3.51562 2.375C2.91406 2.375 2.44922 2.86719 2.44922 3.44141C2.44922 4.01562 2.91406 4.48047 3.51562 4.48047ZM11.2266 11.125V7.92578C11.2266 6.36719 10.8711 5.13672 9.03906 5.13672C8.16406 5.13672 7.5625 5.62891 7.31641 6.09375H7.28906V5.30078H5.56641V11.125H7.37109V8.25391C7.37109 7.48828 7.50781 6.75 8.46484 6.75C9.39453 6.75 9.39453 7.625 9.39453 8.28125V11.125H11.2266Z" fill="white"/>
</svg>
