<svg width="18" height="18" viewBox="0 0 18 18" fill="none" xmlns="http://www.w3.org/2000/svg">
<g clip-path="url(#clip0_129_2349)">
<g clip-path="url(#clip1_129_2349)">
<g clip-path="url(#clip2_129_2349)">
<path d="M14.6638 17.5133C10.8933 17.9158 7.11133 17.9158 3.3408 17.5133C1.83732 17.3529 0.649788 16.1653 0.489326 14.6617C0.0868914 10.8912 0.0868914 7.10938 0.489326 3.33884C0.649788 1.83536 1.83732 0.647835 3.3408 0.487372C7.11133 0.0849383 10.8931 0.0849383 14.6637 0.487372C16.1673 0.647835 17.3548 1.83536 17.5153 3.33884C17.9177 7.10938 17.9177 10.8912 17.5153 14.6617C17.3548 16.1653 16.1674 17.3529 14.6638 17.5133Z" fill="white"/>
<path d="M3.67969 7.22852H6.01413V14.4656H3.67969V7.22852Z" fill="#2563EB"/>
<path d="M12.2165 7.07227C10.5058 7.07227 9.75428 8.02307 9.56517 8.31252V7.22802H7.41406V14.4651H9.74863V10.8299C9.74863 9.77942 10.2322 8.96231 11.1494 8.96231C12.0664 8.96231 12.2165 9.97943 12.2165 11.2302V14.4651H14.5511V9.40684C14.5511 8.11749 13.5059 7.07227 12.2165 7.07227Z" fill="#2563EB"/>
<path d="M6.23237 4.92485C6.23237 5.69232 5.61028 6.3144 4.84281 6.3144C4.07533 6.3144 3.45312 5.69232 3.45312 4.92485C3.45312 4.15737 4.07533 3.53516 4.84281 3.53516C5.61028 3.53516 6.23237 4.15737 6.23237 4.92485Z" fill="#2563EB"/>
</g>
</g>
</g>
<defs>
<clipPath id="clip0_129_2349">
<rect width="18" height="18" fill="white"/>
</clipPath>
<clipPath id="clip1_129_2349">
<rect width="18" height="18" fill="white"/>
</clipPath>
<clipPath id="clip2_129_2349">
<rect width="18" height="18" fill="white"/>
</clipPath>
</defs>
</svg>
