<svg width="167" height="33" viewBox="0 0 167 33" fill="none" xmlns="http://www.w3.org/2000/svg">
<path d="M23.5709 15.1784L23.4254 15.3247V15.531V28.8604H3.39388V8.70932H16.6451H16.853L16.9996 8.56187L18.8935 6.65724L19.7413 5.80469H18.539H1H0.5V6.30469V31.265V31.765H1H25.8193H26.3193V31.265V13.6264V12.4144L25.4647 13.2738L23.5709 15.1784Z" fill="#2563EB" stroke="#2563EB"/>
<path d="M31.4676 7.74365L31.5967 7.60085V7.40836V1V0.5H31.0967H25.3036H25.0816L24.9327 0.664732L23.4259 2.33177L22.671 3.16704H23.7969H29.0897V9.0754V10.3741L29.9607 9.41069L31.4676 7.74365Z" fill="#17AD78" stroke="#17AD78"/>
<path d="M50.6594 31.8046H50.8505L50.7415 31.6476L46.9699 26.2116C49.1644 25.2214 50.4414 23.3115 50.4414 20.7318C50.4414 18.7739 49.7149 17.1824 48.4027 16.0822C47.0926 14.9836 45.2083 14.3827 42.9045 14.3827H35.4922H35.3922V14.4827V31.7046V31.8046H35.4922H39.4553H39.5553V31.7046V27.0071H42.9045H43.0478L46.3205 31.7613L46.3503 31.8046H46.4029H50.6594ZM66.8405 28.5063V28.4063H66.7405H57.5199V24.6207H65.3704H65.4704V24.5207V21.4207V21.3207H65.3704H57.5199V17.7811H66.4225H66.5225V17.6811V14.4827V14.3827H66.4225H53.4814H53.3814V14.4827V31.7046V31.8046H53.4814H66.7405H66.8405V31.7046V28.5063ZM68.4571 29.9663L68.425 30.0379L68.4869 30.0861C70.0261 31.2846 72.7901 32.1 75.5202 32.1C77.9826 32.1 79.8234 31.4809 81.0507 30.4877C82.2796 29.4933 82.8858 28.1297 82.8858 26.6611C82.8858 25.0488 82.2487 23.9714 81.2919 23.2196C80.3411 22.4724 79.079 22.0501 77.8325 21.7298C77.4066 21.6203 76.9797 21.5222 76.5667 21.4272C76.3752 21.3831 76.1867 21.3398 76.0027 21.2963C75.4197 21.1586 74.8801 21.0194 74.4193 20.8516C73.9576 20.6835 73.5835 20.4897 73.3258 20.2471C73.0715 20.0077 72.9295 19.7204 72.9295 19.3541C72.9295 18.8446 73.1405 18.3839 73.6322 18.0465C74.1287 17.7057 74.9191 17.4859 76.083 17.4859C77.5803 17.4859 79.2025 17.9232 80.7792 18.8258L80.8786 18.8827L80.9216 18.7765L82.1447 15.7503L82.1759 15.6731L82.1056 15.6284C80.4954 14.607 78.2737 14.0875 76.1074 14.0875C73.6574 14.0875 71.8286 14.7004 70.6102 15.6938C69.3902 16.6886 68.7907 18.0585 68.7907 19.5509C68.7907 21.1812 69.4274 22.2708 70.3842 23.0316C71.335 23.7878 72.5972 24.2156 73.8438 24.5405C74.2674 24.651 74.6921 24.7502 75.103 24.8462C75.2968 24.8915 75.4875 24.936 75.6736 24.9807C76.2566 25.1207 76.7962 25.2623 77.2569 25.4329C77.7185 25.6038 78.0926 25.8009 78.3504 26.0474C78.6049 26.2908 78.7473 26.5833 78.7473 26.9563C78.7473 27.4496 78.5277 27.8792 78.0241 28.1906C77.5147 28.5057 76.7105 28.7015 75.5448 28.7015C73.5107 28.7015 71.3787 27.97 69.9527 26.9249L69.8529 26.8517L69.8024 26.9646L68.4571 29.9663ZM85.347 14.3827H85.247V14.4827V24.127C85.247 26.6798 85.9743 28.6764 87.328 30.0347C88.6817 31.393 90.6488 32.1 93.1019 32.1C95.555 32.1 97.522 31.393 98.8758 30.0347C100.229 28.6764 100.957 26.6798 100.957 24.127V14.4827V14.3827H100.857H96.9426H96.8426V14.4827V23.9794C96.8426 25.6037 96.4961 26.7319 95.8673 27.4534C95.2408 28.1722 94.3188 28.5047 93.1265 28.5047C91.9466 28.5047 91.0242 28.1723 90.3945 27.4532C89.7625 26.7316 89.4101 25.6033 89.4101 23.9794V14.4827V14.3827H89.3101H85.347ZM124.075 31.8046H124.175L124.175 31.7044L124.126 14.4824L124.126 14.3827H124.026H120.772H120.715L120.686 14.4319L114.46 24.9892L108.137 14.4313L108.108 14.3827H108.051H104.773H104.673V14.4827V31.7046V31.8046H104.773H108.491H108.591V31.7046V21.9515L113.421 29.9358L113.45 29.9841H113.506H115.292H115.349L115.378 29.935L120.233 21.7353L120.256 31.7049L120.256 31.8046H120.356H124.075ZM148.678 31.7046V31.8046H148.778H156.558C159.379 31.8046 161.765 30.9496 163.447 29.4293C165.13 27.908 166.101 25.7275 166.101 23.0937C166.101 20.4598 165.13 18.2793 163.447 16.7581C161.765 15.2378 159.379 14.3827 156.558 14.3827H148.778H148.678V14.4827V31.7046ZM42.6843 17.8303C43.8818 17.8303 44.7665 18.1042 45.3506 18.5971C45.9319 19.0877 46.2294 19.8073 46.2294 20.7318C46.2294 21.6438 45.932 22.3637 45.3503 22.8575C44.7661 23.3536 43.8813 23.6334 42.6843 23.6334H39.5553V17.8303H42.6843ZM126.961 23.0937C126.961 28.2709 130.974 32.1 136.431 32.1C141.863 32.1 145.9 28.2958 145.9 23.0937C145.9 17.8916 141.863 14.0875 136.431 14.0875C130.974 14.0875 126.961 17.9165 126.961 23.0937ZM141.688 23.0937C141.688 26.3118 139.432 28.5047 136.431 28.5047C133.429 28.5047 131.173 26.3118 131.173 23.0937C131.173 19.8756 133.429 17.6827 136.431 17.6827C139.432 17.6827 141.688 19.8756 141.688 23.0937ZM156.362 28.3325H152.842V17.8549H156.362C158.042 17.8549 159.423 18.3592 160.382 19.2609C161.341 20.1619 161.889 21.4687 161.889 23.0937C161.889 24.7187 161.341 26.0255 160.382 26.9265C159.423 27.8282 158.042 28.3325 156.362 28.3325Z" fill="#18181B" stroke="#18181B" stroke-width="0.2"/>
</svg>
