<svg width="62" height="62" viewBox="0 0 62 62" fill="none" xmlns="http://www.w3.org/2000/svg">
<g id="money.svg" clip-path="url(#clip0_2696_715)">
<path id="Vector" opacity="0.2" d="M31 62C48.1208 62 62 48.1208 62 31C62 13.8792 48.1208 0 31 0C13.8792 0 0 13.8792 0 31C0 48.1208 13.8792 62 31 62Z" fill="#2563EB"/>
<path id="Vector_2" d="M30.9998 47.105C39.983 47.105 47.2652 39.8227 47.2652 30.8396C47.2652 21.8564 39.983 14.5742 30.9998 14.5742C22.0167 14.5742 14.7344 21.8564 14.7344 30.8396C14.7344 39.8227 22.0167 47.105 30.9998 47.105Z" fill="#2563EB"/>
<path id="Vector_3" d="M34.6762 30.9987L32.2201 30.1366V24.6226H32.8057C34.1232 24.6226 35.1967 25.7775 35.1967 27.1926C35.1967 27.8594 35.7497 28.4125 36.4166 28.4125C37.0835 28.4125 37.6365 27.8594 37.6365 27.1926C37.6365 24.4274 35.4732 22.1828 32.8057 22.1828H32.2201V21.2394C32.2201 20.5725 31.6671 20.0195 31.0002 20.0195C30.3333 20.0195 29.7803 20.5725 29.7803 21.2394V22.1828H28.7231C26.3158 22.1828 24.3477 24.216 24.3477 26.7046C24.3477 29.6161 26.0393 30.5432 27.3242 30.9987L29.7803 31.8607V37.3585H29.1948C27.8773 37.3585 26.8037 36.2036 26.8037 34.7885C26.8037 34.1216 26.2507 33.5686 25.5838 33.5686C24.9169 33.5686 24.3639 34.1216 24.3639 34.7885C24.3639 37.5536 26.5272 39.7983 29.1948 39.7983H29.7803V40.7579C29.7803 41.4248 30.3333 41.9778 31.0002 41.9778C31.6671 41.9778 32.2201 41.4248 32.2201 40.7579V39.8145H33.2774C35.6847 39.8145 37.6528 37.7814 37.6528 35.2927C37.6365 32.365 35.9449 31.4378 34.6762 30.9987ZM28.1375 28.7052C27.308 28.4125 26.8037 28.136 26.8037 26.7209C26.8037 25.566 27.6658 24.6389 28.7393 24.6389H29.7966V29.2908L28.1375 28.7052ZM33.2774 37.3747H32.2201V32.7228L33.8629 33.2921C34.6925 33.5849 35.1967 33.8614 35.1967 35.2765C35.1967 36.4313 34.3346 37.3747 33.2774 37.3747Z" fill="white"/>
</g>
<defs>
<clipPath id="clip0_2696_715">
<rect width="62" height="62" fill="white"/>
</clipPath>
</defs>
</svg>
