<svg width="62" height="62" viewBox="0 0 62 62" fill="none" xmlns="http://www.w3.org/2000/svg">
<g id="multi-resume.svg" clip-path="url(#clip0_2696_708)">
<path id="Vector" opacity="0.2" d="M31 62C48.1208 62 62 48.1208 62 31C62 13.8792 48.1208 0 31 0C13.8792 0 0 13.8792 0 31C0 48.1208 13.8792 62 31 62Z" fill="#2563EB"/>
<path id="Vector_2" d="M36.6927 32.8704H33.1631C30.2679 32.8704 27.9094 30.5282 27.9094 27.6167V24.0871C27.9094 23.4202 27.3726 22.8672 26.6895 22.8672H21.5333C17.776 22.8672 14.7344 25.307 14.7344 29.6661V40.4664C14.7344 44.8255 17.776 47.2653 21.5333 47.2653H31.1137C34.871 47.2653 37.9126 44.8255 37.9126 40.4664V34.0903C37.9126 33.4072 37.3596 32.8704 36.6927 32.8704Z" fill="#2563EB"/>
<path id="Vector_3" d="M40.4646 14.7344H37.2603H35.4874H30.8843C27.2083 14.7344 24.2317 17.0766 24.1016 21.2568C24.1992 21.2568 24.2805 21.2405 24.3781 21.2405H28.9812H30.7542H33.9585C37.7158 21.2405 40.7574 23.6804 40.7574 28.0395V31.2438V35.6517V38.856C40.7574 38.9536 40.7411 39.0349 40.7411 39.1163C44.3683 39.0024 47.2636 36.5951 47.2636 32.3498V29.1455V24.7376V21.5333C47.2636 17.1742 44.222 14.7344 40.4646 14.7344Z" fill="#2563EB"/>
<path id="Vector_4" d="M30.9679 23.1115C30.4636 22.6073 29.6016 22.9488 29.6016 23.6483V27.9098C29.6016 29.699 31.1143 31.1629 32.9685 31.1629C34.1234 31.1791 35.7336 31.1791 37.1162 31.1791C37.8156 31.1791 38.1735 30.3659 37.6855 29.8779C35.9126 28.105 32.7571 24.9332 30.9679 23.1115Z" fill="#2563EB"/>
</g>
<defs>
<clipPath id="clip0_2696_708">
<rect width="62" height="62" fill="white"/>
</clipPath>
</defs>
</svg>
