<svg width="54" height="54" viewBox="0 0 54 54" fill="none" xmlns="http://www.w3.org/2000/svg">
<g id="night-mode">
<g id="Group 1948764544">
<g id="Group">
<path id="Vector" d="M29.4382 17.8684L24.5477 36.12C19.5078 34.7695 16.5167 29.589 17.8673 24.549C19.2177 19.509 24.3982 16.518 29.4382 17.8684Z" fill="#2563EB"/>
<path id="Vector_2" fill-rule="evenodd" clip-rule="evenodd" d="M46.5474 32.2339C43.6535 43.0339 32.5524 49.4432 21.7524 46.5493C10.9524 43.6554 4.54319 32.5544 7.43704 21.7544C10.3309 10.9544 21.432 4.54515 32.232 7.43899C43.032 10.3329 49.4412 21.4339 46.5474 32.2339ZM22.8003 42.6382L24.5469 36.12C29.5869 37.4704 34.7674 34.4795 36.1179 29.4394C37.4683 24.3994 34.4774 19.219 29.4375 17.8684L31.1841 11.35C22.5439 9.03494 13.6631 14.1623 11.3481 22.8023C9.03298 31.4423 14.1603 40.3232 22.8003 42.6382Z" fill="#2563EB"/>
</g>
</g>
</g>
</svg>
