<svg width="129" height="82" viewBox="0 0 129 82" fill="none" xmlns="http://www.w3.org/2000/svg">
<g id="Group">
<path id="Vector" d="M1.79999 6.91999C11.2667 -0.653343 20.7333 -0.653343 30.2 6.91999C39.6667 14.4933 49.1333 14.4933 58.6 6.91999C68.0667 -0.653343 77.5333 -0.653343 87 6.91999C96.4667 14.4933 105.933 14.4933 115.4 6.91999C124.867 -0.653343 134.333 -0.653343 143.8 6.91999C153.267 14.4933 162.733 14.4933 172.2 6.91999" stroke="#2563EB" stroke-width="2" stroke-linecap="round"/>
<path id="Vector_2" d="M1.79999 41.0001C11.2667 33.4267 20.7333 33.4267 30.2 41.0001C39.6667 48.5734 49.1333 48.5734 58.6 41.0001C68.0667 33.4267 77.5333 33.4267 87 41.0001C96.4667 48.5734 105.933 48.5734 115.4 41.0001C124.867 33.4267 134.333 33.4267 143.8 41.0001C153.267 48.5734 162.733 48.5734 172.2 41.0001" stroke="#2563EB" stroke-width="2" stroke-linecap="round"/>
<path id="Vector_3" d="M1.79999 75.0799C11.2667 67.5066 20.7333 67.5066 30.2 75.0799C39.6667 82.6532 49.1333 82.6532 58.6 75.0799C68.0667 67.5066 77.5333 67.5066 87 75.0799C96.4667 82.6532 105.933 82.6532 115.4 75.0799C124.867 67.5066 134.333 67.5066 143.8 75.0799C153.267 82.6532 162.733 82.6532 172.2 75.0799" stroke="#2563EB" stroke-width="2" stroke-linecap="round"/>
</g>
</svg>
