<svg width="34" height="34" viewBox="0 0 34 34" fill="none" xmlns="http://www.w3.org/2000/svg">
<path opacity="0.35" d="M17 0C14.7675 -2.6622e-08 12.5569 0.439718 10.4944 1.29405C8.43185 2.14838 6.55778 3.40059 4.97918 4.97918C3.40059 6.55778 2.14838 8.43185 1.29405 10.4944C0.439718 12.5569 -7.09625e-08 14.7675 0 17C7.09625e-08 19.2325 0.439718 21.4431 1.29405 23.5056C2.14838 25.5682 3.40059 27.4422 4.97919 29.0208C6.55778 30.5994 8.43185 31.8516 10.4944 32.706C12.5569 33.5603 14.7675 34 17 34L17 17L17 0Z" fill="#2563EB"/>
<circle cx="17" cy="17" r="11" fill="white"/>
<path d="M17.0026 5.33398C10.5626 5.33398 5.33594 10.5607 5.33594 17.0007C5.33594 23.4407 10.5626 28.6673 17.0026 28.6673C23.4426 28.6673 28.6693 23.4407 28.6693 17.0007C28.6693 10.5607 23.4426 5.33398 17.0026 5.33398ZM20.1059 19.019L18.6126 19.8823L17.1193 20.7457C15.1943 21.854 13.6193 20.944 13.6193 18.7273V17.0007V15.274C13.6193 13.0457 15.1943 12.1473 17.1193 13.2557L18.6126 14.119L20.1059 14.9823C22.0309 16.0907 22.0309 17.9107 20.1059 19.019Z" fill="#2563EB"/>
</svg>
