<svg width="62" height="62" viewBox="0 0 62 62" fill="none" xmlns="http://www.w3.org/2000/svg">
<g id="referral.svg" clip-path="url(#clip0_2696_721)">
<path id="Vector" opacity="0.2" d="M31 62C48.1208 62 62 48.1208 62 31C62 13.8792 48.1208 0 31 0C13.8792 0 0 13.8792 0 31C0 48.1208 13.8792 62 31 62Z" fill="#2563EB"/>
<path id="Vector_2" d="M37.8144 14.7344H24.2002C18.2796 14.7344 14.75 18.264 14.75 24.1846V37.7988C14.75 43.7194 18.2796 47.249 24.2002 47.249H37.8144C43.735 47.249 47.2646 43.7194 47.2646 37.7988V24.1846C47.2646 18.264 43.735 14.7344 37.8144 14.7344Z" fill="#2563EB"/>
<path id="Vector_3" d="M26.3961 34.4006C26.7052 34.4006 27.0142 34.2868 27.2582 34.0428L34.3825 26.9185V30.871C34.3825 31.5379 34.9355 32.0909 35.6024 32.0909C36.2693 32.0909 36.8223 31.5379 36.8223 30.871V23.9745C36.8223 23.8118 36.7898 23.6654 36.7247 23.5028C36.5946 23.21 36.3669 22.966 36.0578 22.8359C35.9114 22.7708 35.7488 22.7383 35.5861 22.7383H28.6896C28.0227 22.7383 27.4697 23.2913 27.4697 23.9582C27.4697 24.6251 28.0227 25.1781 28.6896 25.1781H32.6421L25.5178 32.3024C25.0461 32.7741 25.0461 33.5548 25.5178 34.0265C25.7781 34.2868 26.0871 34.4006 26.3961 34.4006Z" fill="white"/>
<path id="Vector_4" d="M41.9149 37.9637C41.7035 37.3294 41.0203 36.9878 40.3697 37.1993C34.3189 39.2162 27.6664 39.2162 21.6156 37.1993C20.9813 36.9878 20.2819 37.3294 20.0704 37.9637C19.859 38.5981 20.2006 39.2975 20.8349 39.509C24.1043 40.5987 27.5363 41.1518 30.9845 41.1518C34.4328 41.1518 37.8648 40.5987 41.1342 39.509C41.7848 39.2812 42.1264 38.5981 41.9149 37.9637Z" fill="white"/>
</g>
<defs>
<clipPath id="clip0_2696_721">
<rect width="62" height="62" fill="white"/>
</clipPath>
</defs>
</svg>
