<svg width="62" height="62" viewBox="0 0 62 62" fill="none" xmlns="http://www.w3.org/2000/svg">
<g id="safe-secure.svg" clip-path="url(#clip0_2696_734)">
<path id="Vector" opacity="0.2" d="M31 62C48.1208 62 62 48.1208 62 31C62 13.8792 48.1208 0 31 0C13.8792 0 0 13.8792 0 31C0 48.1208 13.8792 62 31 62Z" fill="#2563EB"/>
<path id="Vector_2" d="M45.4928 29.5679C45.4928 37.5217 39.7186 44.9713 31.8299 47.1508C31.2931 47.2972 30.7075 47.2972 30.1708 47.1508C22.282 44.9713 16.5078 37.5217 16.5078 29.5679V22.4274C16.5078 21.0936 17.5163 19.581 18.7687 19.0767L27.8286 15.3682C29.8617 14.5387 32.1552 14.5387 34.1883 15.3682L43.2482 19.0767C44.4844 19.581 45.5091 21.0936 45.5091 22.4274L45.4928 29.5679Z" fill="#2563EB"/>
<path id="Vector_3" d="M35.0663 28.5586C35.0663 26.314 33.2446 24.4922 31 24.4922C28.7553 24.4922 26.9336 26.314 26.9336 28.5586C26.9336 30.3803 28.1372 31.893 29.78 32.4135V36.6913C29.78 37.3582 30.3331 37.9112 31 37.9112C31.6668 37.9112 32.2199 37.3582 32.2199 36.6913V32.4135C33.8627 31.893 35.0663 30.3803 35.0663 28.5586Z" fill="white"/>
</g>
<defs>
<clipPath id="clip0_2696_734">
<rect width="62" height="62" fill="white"/>
</clipPath>
</defs>
</svg>
