<svg width="22" height="22" viewBox="0 0 22 22" fill="none" xmlns="http://www.w3.org/2000/svg">
<g clip-path="url(#clip0_129_2343)">
<path d="M14.5443 2.14648H7.46094C3.91928 2.14648 2.14844 3.91731 2.14844 7.45898V18.9694C2.14844 19.4564 2.54688 19.8548 3.03386 19.8548H14.5443C18.086 19.8548 19.8568 18.084 19.8568 14.5423V7.45898C19.8568 3.91731 18.086 2.14648 14.5443 2.14648ZM10.2146 15.1267C9.99324 15.3481 9.58594 15.5517 9.2849 15.596L7.44324 15.8528C7.3724 15.8616 7.30157 15.8705 7.23959 15.8705C6.92969 15.8705 6.64636 15.7642 6.44272 15.5606C6.1948 15.3127 6.08855 14.9496 6.15053 14.56L6.4073 12.7184C6.45157 12.4173 6.65522 12.0012 6.87657 11.7887L10.2146 8.45064C10.2677 8.61002 10.3386 8.76939 10.4183 8.94648C10.498 9.10585 10.5776 9.26523 10.6662 9.41575C10.737 9.53971 10.8167 9.66366 10.8875 9.75221C10.9761 9.88502 11.0646 10.0001 11.1266 10.0621C11.162 10.1153 11.1974 10.1507 11.2063 10.1684C11.4011 10.3897 11.6047 10.6022 11.7995 10.7616C11.8526 10.8147 11.8881 10.8413 11.8969 10.8502C12.012 10.9387 12.1183 11.0361 12.2245 11.0981C12.3396 11.1866 12.4636 11.2663 12.5875 11.3371C12.7381 11.4257 12.8974 11.5142 13.0657 11.5939C13.2339 11.6736 13.3933 11.7356 13.5526 11.7887L10.2146 15.1267ZM15.0313 10.3189L14.3407 11.0095C14.2964 11.0538 14.2344 11.0804 14.1724 11.0804C14.1547 11.0804 14.1193 11.0804 14.1016 11.0715C12.5787 10.6377 11.3657 9.4246 10.9318 7.90168C10.9052 7.822 10.9318 7.73346 10.9938 7.67148L11.6933 6.972C12.8355 5.82981 13.9157 5.85637 15.0313 6.972C15.598 7.53866 15.8813 8.08762 15.8724 8.65429C15.8724 9.2121 15.598 9.75221 15.0313 10.3189Z" fill="white"/>
</g>
<defs>
<clipPath id="clip0_129_2343">
<rect width="22" height="22" fill="white"/>
</clipPath>
</defs>
</svg>
