<svg width="171" height="32" viewBox="0 0 171 32" fill="none" xmlns="http://www.w3.org/2000/svg">
<g id="stars-4.5.svg" clip-path="url(#clip0_2696_386)">
<g id="Trustpilot_ratings_4halfstar-RGB">
<g id="Group">
<path id="Rectangle-path" d="M31.9934 0.00292969H0V31.9964H31.9934V0.00292969Z" fill="#00B67A"/>
<path id="Vector" d="M66.6536 0.00292969H34.6602V31.9964H66.6536V0.00292969Z" fill="#00B67A"/>
<path id="Vector_2" d="M101.314 0.00292969H69.3203V31.9964H101.314V0.00292969Z" fill="#00B67A"/>
<path id="Vector_3" d="M135.974 0.00292969H103.98V31.9964H135.974V0.00292969Z" fill="#00B67A"/>
<g id="Half">
<path id="Vector_4" d="M170.633 0.00292969H154.637V31.9964H170.633V0.00292969Z" fill="#DCDCE6"/>
<path id="Vector_5" d="M154.637 0.00292969H138.641V31.9964H154.637V0.00292969Z" fill="#00B67A"/>
</g>
<path id="Shape" d="M15.9985 21.5657L20.8642 20.3326L22.8971 26.598L15.9985 21.5657ZM27.1962 13.4674H18.6313L15.9985 5.40234L13.3657 13.4674H4.80078L11.7327 18.4663L9.0999 26.5313L16.0318 21.5324L20.2976 18.4663L27.1962 13.4674Z" fill="white"/>
<path id="Vector_6" d="M50.6586 21.5657L55.5243 20.3326L57.5572 26.598L50.6586 21.5657ZM61.8563 13.4674H53.2914L50.6586 5.40234L48.0258 13.4674H39.4609L46.3928 18.4663L43.7601 26.5313L50.692 21.5324L54.9578 18.4663L61.8563 13.4674Z" fill="white"/>
<path id="Vector_7" d="M85.3149 21.5657L90.1806 20.3326L92.2135 26.598L85.3149 21.5657ZM96.5126 13.4674H87.9477L85.3149 5.40234L82.6821 13.4674H74.1172L81.0491 18.4663L78.4163 26.5313L85.3482 21.5324L89.614 18.4663L96.5126 13.4674Z" fill="white"/>
<path id="Vector_8" d="M119.975 21.5657L124.841 20.3326L126.874 26.598L119.975 21.5657ZM131.173 13.4674H122.608L119.975 5.40234L117.342 13.4674H108.777L115.709 18.4663L113.076 26.5313L120.008 21.5324L124.274 18.4663L131.173 13.4674Z" fill="white"/>
<path id="Vector_9" d="M154.635 21.5657L159.501 20.3326L161.534 26.598L154.635 21.5657ZM165.833 13.4674H157.268L154.635 5.40234L152.002 13.4674H143.438L150.369 18.4663L147.737 26.5313L154.669 21.5324L158.934 18.4663L165.833 13.4674Z" fill="white"/>
</g>
</g>
</g>
<defs>
<clipPath id="clip0_2696_386">
<rect width="170.632" height="31.9934" fill="white" transform="translate(0 0.00292969)"/>
</clipPath>
</defs>
</svg>
