<svg width="22" height="22" viewBox="0 0 22 22" fill="none" xmlns="http://www.w3.org/2000/svg">
<g clip-path="url(#clip0_129_2333)">
<g clip-path="url(#clip1_129_2333)">
<path d="M14.7125 2.14648H7.29271C4.06979 2.14648 2.14844 4.06783 2.14844 7.29075V14.7106C2.14844 17.9335 4.06979 19.8548 7.29271 19.8548H14.7125C17.9354 19.8548 19.8567 17.9335 19.8567 14.7106V7.29075C19.8567 4.06783 17.9354 2.14648 14.7125 2.14648ZM9.20521 13.5684L7.21302 15.5606C7.08021 15.6934 6.91198 15.7554 6.74375 15.7554C6.57552 15.7554 6.39844 15.6934 6.27448 15.5606L5.61042 14.8965C5.34479 14.6397 5.34479 14.2147 5.61042 13.958C5.86719 13.7012 6.28333 13.7012 6.54896 13.958L6.74375 14.1528L8.26667 12.6298C8.52344 12.3731 8.93958 12.3731 9.20521 12.6298C9.46198 12.8866 9.46198 13.3116 9.20521 13.5684ZM9.20521 7.37044L7.21302 9.36263C7.08021 9.49545 6.91198 9.55742 6.74375 9.55742C6.57552 9.55742 6.39844 9.49545 6.27448 9.36263L5.61042 8.69856C5.34479 8.44179 5.34479 8.01679 5.61042 7.76002C5.86719 7.50325 6.28333 7.50325 6.54896 7.76002L6.74375 7.95481L8.26667 6.43189C8.52344 6.17512 8.93958 6.17512 9.20521 6.43189C9.46198 6.68867 9.46198 7.11367 9.20521 7.37044ZM15.9255 15.0913H11.277C10.914 15.0913 10.613 14.7903 10.613 14.4272C10.613 14.0642 10.914 13.7632 11.277 13.7632H15.9255C16.2974 13.7632 16.5895 14.0642 16.5895 14.4272C16.5895 14.7903 16.2974 15.0913 15.9255 15.0913ZM15.9255 8.89335H11.277C10.914 8.89335 10.613 8.59231 10.613 8.22929C10.613 7.86627 10.914 7.56523 11.277 7.56523H15.9255C16.2974 7.56523 16.5895 7.86627 16.5895 8.22929C16.5895 8.59231 16.2974 8.89335 15.9255 8.89335Z" fill="#fff"/>
</g>
</g>
<defs>
<clipPath id="clip0_129_2333">
<rect width="22" height="22" fill="white"/>
</clipPath>
<clipPath id="clip1_129_2333">
<rect width="22" height="22" fill="white"/>
</clipPath>
</defs>
</svg>
