<svg width="15" height="12" viewBox="0 0 15 12" fill="none" xmlns="http://www.w3.org/2000/svg">
<path d="M12.957 2.90625C12.957 3.04297 12.957 3.15234 12.957 3.28906C12.957 7.08984 10.0859 11.4375 4.80859 11.4375C3.16797 11.4375 1.66406 10.9727 0.40625 10.1523C0.625 10.1797 0.84375 10.207 1.08984 10.207C2.42969 10.207 3.66016 9.74219 4.64453 8.97656C3.38672 8.94922 2.32031 8.12891 1.96484 6.98047C2.15625 7.00781 2.32031 7.03516 2.51172 7.03516C2.75781 7.03516 3.03125 6.98047 3.25 6.92578C1.9375 6.65234 0.953125 5.50391 0.953125 4.10938V4.08203C1.33594 4.30078 1.80078 4.41016 2.26562 4.4375C1.47266 3.91797 0.980469 3.04297 0.980469 2.05859C0.980469 1.51172 1.11719 1.01953 1.36328 0.609375C2.78516 2.33203 4.91797 3.48047 7.29688 3.61719C7.24219 3.39844 7.21484 3.17969 7.21484 2.96094C7.21484 1.375 8.5 0.0898438 10.0859 0.0898438C10.9062 0.0898438 11.6445 0.417969 12.1914 0.992188C12.8203 0.855469 13.4492 0.609375 13.9961 0.28125C13.7773 0.964844 13.3398 1.51172 12.7383 1.86719C13.3125 1.8125 13.8867 1.64844 14.3789 1.42969C13.9961 2.00391 13.5039 2.49609 12.957 2.90625Z" fill="white"/>
</svg>
