<svg width="129" height="82" viewBox="0 0 129 82" fill="none" xmlns="http://www.w3.org/2000/svg">
<path d="M1.79999 6.91999C11.2667 -0.653343 20.7333 -0.653343 30.2 6.91999C39.6667 14.4933 49.1333 14.4933 58.6 6.91999C68.0667 -0.653343 77.5333 -0.653343 87 6.91999C96.4667 14.4933 105.933 14.4933 115.4 6.91999C124.867 -0.653343 134.333 -0.653343 143.8 6.91999C153.267 14.4933 162.733 14.4933 172.2 6.91999" stroke="#2563EB" stroke-width="2" stroke-linecap="round"/>
<path d="M1.79999 40.9999C11.2667 33.4266 20.7333 33.4266 30.2 40.9999C39.6667 48.5733 49.1333 48.5733 58.6 40.9999C68.0667 33.4266 77.5333 33.4266 87 40.9999C96.4667 48.5733 105.933 48.5733 115.4 40.9999C124.867 33.4266 134.333 33.4266 143.8 40.9999C153.267 48.5733 162.733 48.5733 172.2 40.9999" stroke="#2563EB" stroke-width="2" stroke-linecap="round"/>
<path d="M1.79999 75.08C11.2667 67.5067 20.7333 67.5067 30.2 75.08C39.6667 82.6534 49.1333 82.6534 58.6 75.08C68.0667 67.5067 77.5333 67.5067 87 75.08C96.4667 82.6534 105.933 82.6534 115.4 75.08C124.867 67.5067 134.333 67.5067 143.8 75.08C153.267 82.6534 162.733 82.6534 172.2 75.08" stroke="#2563EB" stroke-width="2" stroke-linecap="round"/>
</svg>
